G04 #@! TF.GenerationSoftware,KiCad,Pcbnew,(7.0.0-0)*
G04 #@! TF.CreationDate,2023-04-22T22:08:33+02:00*
G04 #@! TF.ProjectId,tiny-blackbox,74696e79-2d62-46c6-9163-6b626f782e6b,rev?*
G04 #@! TF.SameCoordinates,Original*
G04 #@! TF.FileFunction,Copper,L2,Bot*
G04 #@! TF.FilePolarity,Positive*
%FSLAX46Y46*%
G04 Gerber Fmt 4.6, Leading zero omitted, Abs format (unit mm)*
G04 Created by KiCad (PCBNEW (7.0.0-0)) date 2023-04-22 22:08:33*
%MOMM*%
%LPD*%
G01*
G04 APERTURE LIST*
G04 Aperture macros list*
%AMRoundRect*
0 Rectangle with rounded corners*
0 $1 Rounding radius*
0 $2 $3 $4 $5 $6 $7 $8 $9 X,Y pos of 4 corners*
0 Add a 4 corners polygon primitive as box body*
4,1,4,$2,$3,$4,$5,$6,$7,$8,$9,$2,$3,0*
0 Add four circle primitives for the rounded corners*
1,1,$1+$1,$2,$3*
1,1,$1+$1,$4,$5*
1,1,$1+$1,$6,$7*
1,1,$1+$1,$8,$9*
0 Add four rect primitives between the rounded corners*
20,1,$1+$1,$2,$3,$4,$5,0*
20,1,$1+$1,$4,$5,$6,$7,0*
20,1,$1+$1,$6,$7,$8,$9,0*
20,1,$1+$1,$8,$9,$2,$3,0*%
G04 Aperture macros list end*
G04 #@! TA.AperFunction,SMDPad,CuDef*
%ADD10R,1.700000X0.800000*%
G04 #@! TD*
G04 #@! TA.AperFunction,SMDPad,CuDef*
%ADD11RoundRect,0.200000X-0.200000X-0.275000X0.200000X-0.275000X0.200000X0.275000X-0.200000X0.275000X0*%
G04 #@! TD*
G04 #@! TA.AperFunction,SMDPad,CuDef*
%ADD12RoundRect,0.150000X0.512500X0.150000X-0.512500X0.150000X-0.512500X-0.150000X0.512500X-0.150000X0*%
G04 #@! TD*
G04 #@! TA.AperFunction,ComponentPad*
%ADD13R,2.800000X2.000000*%
G04 #@! TD*
G04 #@! TA.AperFunction,ComponentPad*
%ADD14O,2.800000X2.000000*%
G04 #@! TD*
G04 #@! TA.AperFunction,SMDPad,CuDef*
%ADD15RoundRect,0.218750X0.256250X-0.218750X0.256250X0.218750X-0.256250X0.218750X-0.256250X-0.218750X0*%
G04 #@! TD*
G04 #@! TA.AperFunction,SMDPad,CuDef*
%ADD16RoundRect,0.225000X0.225000X0.250000X-0.225000X0.250000X-0.225000X-0.250000X0.225000X-0.250000X0*%
G04 #@! TD*
G04 #@! TA.AperFunction,SMDPad,CuDef*
%ADD17RoundRect,0.225000X-0.225000X-0.250000X0.225000X-0.250000X0.225000X0.250000X-0.225000X0.250000X0*%
G04 #@! TD*
G04 #@! TA.AperFunction,ViaPad*
%ADD18C,0.800000*%
G04 #@! TD*
G04 #@! TA.AperFunction,Conductor*
%ADD19C,0.500000*%
G04 #@! TD*
G04 #@! TA.AperFunction,Conductor*
%ADD20C,0.300000*%
G04 #@! TD*
G04 APERTURE END LIST*
D10*
X81749999Y-55895101D03*
X81749999Y-52495097D03*
D11*
X76175000Y-53000000D03*
X77825000Y-53000000D03*
X76175000Y-58000000D03*
X77825000Y-58000000D03*
D12*
X70862500Y-56500000D03*
X73137500Y-57450000D03*
X73137500Y-55550000D03*
D13*
X66799999Y-60439999D03*
D14*
X66799999Y-57899999D03*
X66799999Y-55359999D03*
X66799999Y-52819999D03*
D15*
X81000000Y-60787500D03*
X81000000Y-59212500D03*
D16*
X77775000Y-55750000D03*
X76225000Y-55750000D03*
D17*
X76225000Y-60250000D03*
X77775000Y-60250000D03*
D16*
X72775000Y-59750000D03*
X71225000Y-59750000D03*
D17*
X71225000Y-53000000D03*
X72775000Y-53000000D03*
D18*
X75250000Y-59000000D03*
X76872760Y-53545806D03*
X79250000Y-56249500D03*
X77000000Y-59000000D03*
X80500000Y-54250000D03*
X73000000Y-56500000D03*
X74500000Y-59750000D03*
X74000000Y-52750000D03*
X79139204Y-54000181D03*
D19*
X70250000Y-52820000D02*
X70250000Y-54250000D01*
X70250000Y-54250000D02*
X70750000Y-54750000D01*
X70250000Y-52820000D02*
X71045000Y-52820000D01*
X66800000Y-52820000D02*
X70250000Y-52820000D01*
X70750000Y-54750000D02*
X70750000Y-56387500D01*
X70750000Y-56387500D02*
X70862500Y-56500000D01*
X71045000Y-52820000D02*
X71225000Y-53000000D01*
D20*
X81500000Y-53500000D02*
X81750000Y-53750000D01*
X81750000Y-53750000D02*
X81750000Y-55895102D01*
X79139204Y-54000181D02*
X79639385Y-53500000D01*
X79639385Y-53500000D02*
X81500000Y-53500000D01*
X79250000Y-55500000D02*
X79250000Y-56249500D01*
X80500000Y-54250000D02*
X79500000Y-55250000D01*
X79500000Y-55250000D02*
X79250000Y-55500000D01*
D19*
X73137500Y-57450000D02*
X73137500Y-59387500D01*
X73137500Y-59387500D02*
X72775000Y-59750000D01*
X76225000Y-60250000D02*
X75000000Y-60250000D01*
X75000000Y-60250000D02*
X74500000Y-59750000D01*
X76175000Y-53000000D02*
X75750000Y-53000000D01*
X75750000Y-53000000D02*
X74750000Y-54000000D01*
X74750000Y-54000000D02*
X74750000Y-56750000D01*
X74750000Y-56750000D02*
X74050000Y-57450000D01*
X74050000Y-57450000D02*
X73137500Y-57450000D01*
D20*
X75250000Y-59000000D02*
X75250000Y-57500000D01*
X75250000Y-58750000D02*
X75250000Y-57500000D01*
X76225000Y-56525000D02*
X76225000Y-55750000D01*
X75250000Y-57500000D02*
X76225000Y-56525000D01*
X77000000Y-59000000D02*
X77000000Y-58825000D01*
X77000000Y-58825000D02*
X76175000Y-58000000D01*
D19*
X76872760Y-53545806D02*
X76720806Y-53545806D01*
X76720806Y-53545806D02*
X76175000Y-53000000D01*
D20*
X77825000Y-58000000D02*
X78500000Y-58000000D01*
X78500000Y-58000000D02*
X79750000Y-59250000D01*
X79750000Y-59250000D02*
X80962500Y-59250000D01*
X80962500Y-59250000D02*
X81000000Y-59212500D01*
X77825000Y-53000000D02*
X78139023Y-53000000D01*
X78139023Y-53000000D02*
X79139204Y-54000181D01*
D19*
X72775000Y-59750000D02*
X74500000Y-59750000D01*
G04 #@! TA.AperFunction,Conductor*
G36*
X82938000Y-51516613D02*
G01*
X82983387Y-51562000D01*
X83000000Y-51624000D01*
X83000000Y-55047071D01*
X82984189Y-55107660D01*
X82940790Y-55152798D01*
X82880868Y-55170975D01*
X82819705Y-55157556D01*
X82792178Y-55143530D01*
X82725304Y-55109456D01*
X82715667Y-55107929D01*
X82715662Y-55107928D01*
X82636339Y-55095365D01*
X82636333Y-55095364D01*
X82631519Y-55094602D01*
X82626641Y-55094602D01*
X82424500Y-55094602D01*
X82362500Y-55077989D01*
X82317113Y-55032602D01*
X82300500Y-54970602D01*
X82300500Y-53761522D01*
X82300572Y-53757289D01*
X82302472Y-53701652D01*
X82302762Y-53693174D01*
X82293032Y-53653252D01*
X82290667Y-53640809D01*
X82285070Y-53600080D01*
X82281689Y-53592296D01*
X82277920Y-53583619D01*
X82271178Y-53563570D01*
X82269564Y-53556947D01*
X82266933Y-53546148D01*
X82259259Y-53532500D01*
X82246796Y-53510333D01*
X82241148Y-53498963D01*
X82237496Y-53490556D01*
X82224780Y-53461280D01*
X82213452Y-53447356D01*
X82201558Y-53429881D01*
X82192765Y-53414241D01*
X82163717Y-53385193D01*
X82155209Y-53375766D01*
X82138083Y-53354715D01*
X82129278Y-53343892D01*
X82114610Y-53333537D01*
X82098445Y-53319920D01*
X81897407Y-53118882D01*
X81894465Y-53115838D01*
X81856468Y-53075153D01*
X81856466Y-53075151D01*
X81850680Y-53068956D01*
X81843439Y-53064552D01*
X81843431Y-53064546D01*
X81815573Y-53047605D01*
X81805081Y-53040465D01*
X81792036Y-53030573D01*
X81772342Y-53015639D01*
X81764459Y-53012530D01*
X81764450Y-53012525D01*
X81755642Y-53009052D01*
X81736713Y-52999650D01*
X81728631Y-52994735D01*
X81728624Y-52994732D01*
X81721382Y-52990328D01*
X81713216Y-52988039D01*
X81713214Y-52988039D01*
X81692715Y-52982295D01*
X81681814Y-52979240D01*
X81669786Y-52975196D01*
X81639453Y-52963235D01*
X81631564Y-52960124D01*
X81623129Y-52959256D01*
X81623127Y-52959256D01*
X81613713Y-52958288D01*
X81592954Y-52954343D01*
X81583829Y-52951786D01*
X81583820Y-52951784D01*
X81575665Y-52949500D01*
X81567188Y-52949500D01*
X81534582Y-52949500D01*
X81521901Y-52948850D01*
X81489466Y-52945515D01*
X81489462Y-52945515D01*
X81481028Y-52944648D01*
X81472671Y-52946088D01*
X81472667Y-52946089D01*
X81463344Y-52947697D01*
X81442275Y-52949500D01*
X79650925Y-52949500D01*
X79646691Y-52949428D01*
X79591037Y-52947526D01*
X79591032Y-52947526D01*
X79582559Y-52947237D01*
X79542636Y-52956966D01*
X79530170Y-52959335D01*
X79497869Y-52963774D01*
X79497862Y-52963775D01*
X79489465Y-52964930D01*
X79481686Y-52968308D01*
X79481681Y-52968310D01*
X79472997Y-52972082D01*
X79452972Y-52978816D01*
X79443774Y-52981058D01*
X79443771Y-52981059D01*
X79435533Y-52983067D01*
X79428141Y-52987222D01*
X79428141Y-52987223D01*
X79399717Y-53003204D01*
X79388353Y-53008848D01*
X79358446Y-53021839D01*
X79358440Y-53021842D01*
X79350665Y-53025220D01*
X79344090Y-53030568D01*
X79344083Y-53030573D01*
X79336740Y-53036547D01*
X79319274Y-53048434D01*
X79311022Y-53053074D01*
X79311015Y-53053078D01*
X79303626Y-53057234D01*
X79297631Y-53063228D01*
X79297624Y-53063234D01*
X79274563Y-53086294D01*
X79265143Y-53094796D01*
X79233277Y-53120722D01*
X79228387Y-53127648D01*
X79227494Y-53128605D01*
X79171682Y-53162978D01*
X79106144Y-53164096D01*
X79049193Y-53131645D01*
X78658645Y-52741097D01*
X78635113Y-52708259D01*
X78623387Y-52669599D01*
X78620988Y-52651373D01*
X78610044Y-52568238D01*
X78589006Y-52517449D01*
X78552789Y-52430013D01*
X78549536Y-52422159D01*
X78453282Y-52296718D01*
X78327841Y-52200464D01*
X78257631Y-52171382D01*
X78189271Y-52143066D01*
X78189268Y-52143065D01*
X78181762Y-52139956D01*
X78173708Y-52138895D01*
X78173702Y-52138894D01*
X78068381Y-52125029D01*
X78068377Y-52125028D01*
X78064361Y-52124500D01*
X78060307Y-52124500D01*
X77589694Y-52124500D01*
X77589678Y-52124500D01*
X77585640Y-52124501D01*
X77581626Y-52125029D01*
X77581617Y-52125030D01*
X77476296Y-52138895D01*
X77476294Y-52138895D01*
X77468238Y-52139956D01*
X77460738Y-52143062D01*
X77460729Y-52143065D01*
X77329666Y-52197354D01*
X77329662Y-52197355D01*
X77322159Y-52200464D01*
X77315714Y-52205408D01*
X77315711Y-52205411D01*
X77203164Y-52291771D01*
X77203160Y-52291774D01*
X77196718Y-52296718D01*
X77191774Y-52303160D01*
X77191771Y-52303164D01*
X77100464Y-52422159D01*
X77098797Y-52420880D01*
X77061997Y-52457678D01*
X77000000Y-52474289D01*
X76938003Y-52457678D01*
X76901202Y-52420880D01*
X76899536Y-52422159D01*
X76803282Y-52296718D01*
X76677841Y-52200464D01*
X76607631Y-52171382D01*
X76539271Y-52143066D01*
X76539268Y-52143065D01*
X76531762Y-52139956D01*
X76523708Y-52138895D01*
X76523702Y-52138894D01*
X76418381Y-52125029D01*
X76418377Y-52125028D01*
X76414361Y-52124500D01*
X76410307Y-52124500D01*
X75939694Y-52124500D01*
X75939678Y-52124500D01*
X75935640Y-52124501D01*
X75931626Y-52125029D01*
X75931617Y-52125030D01*
X75826296Y-52138895D01*
X75826294Y-52138895D01*
X75818238Y-52139956D01*
X75810738Y-52143062D01*
X75810729Y-52143065D01*
X75679666Y-52197354D01*
X75679662Y-52197355D01*
X75672159Y-52200464D01*
X75665714Y-52205408D01*
X75665711Y-52205411D01*
X75553164Y-52291771D01*
X75553160Y-52291774D01*
X75546718Y-52296718D01*
X75541774Y-52303160D01*
X75541773Y-52303162D01*
X75472395Y-52393576D01*
X75436293Y-52424575D01*
X75434129Y-52425432D01*
X75427828Y-52430009D01*
X75427822Y-52430013D01*
X75397189Y-52452269D01*
X75387432Y-52458678D01*
X75348135Y-52481919D01*
X75342616Y-52487437D01*
X75342613Y-52487440D01*
X75333122Y-52496930D01*
X75318338Y-52509557D01*
X75307475Y-52517449D01*
X75307466Y-52517457D01*
X75301163Y-52522037D01*
X75296196Y-52528039D01*
X75296185Y-52528051D01*
X75272055Y-52557219D01*
X75264195Y-52565857D01*
X74347354Y-53482698D01*
X74338719Y-53490556D01*
X74338639Y-53490621D01*
X74332060Y-53494798D01*
X74326727Y-53500476D01*
X74326722Y-53500481D01*
X74284132Y-53545834D01*
X74281428Y-53548625D01*
X74261089Y-53568965D01*
X74258712Y-53572028D01*
X74258688Y-53572056D01*
X74258363Y-53572476D01*
X74250807Y-53581321D01*
X74224892Y-53608919D01*
X74224887Y-53608924D01*
X74219552Y-53614607D01*
X74215797Y-53621436D01*
X74215789Y-53621448D01*
X74209321Y-53633213D01*
X74198647Y-53649464D01*
X74193737Y-53655795D01*
X74185638Y-53666236D01*
X74182541Y-53673391D01*
X74182540Y-53673394D01*
X74167506Y-53708133D01*
X74162370Y-53718616D01*
X74144130Y-53751796D01*
X74144127Y-53751802D01*
X74140373Y-53758632D01*
X74138434Y-53766180D01*
X74138431Y-53766190D01*
X74135089Y-53779204D01*
X74128792Y-53797596D01*
X74123464Y-53809910D01*
X74123462Y-53809916D01*
X74120365Y-53817074D01*
X74119145Y-53824772D01*
X74119144Y-53824778D01*
X74113223Y-53862162D01*
X74110855Y-53873593D01*
X74099500Y-53917823D01*
X74099500Y-53925625D01*
X74099500Y-53939046D01*
X74097973Y-53958445D01*
X74095873Y-53971697D01*
X74095872Y-53971704D01*
X74094653Y-53979405D01*
X74095387Y-53987170D01*
X74095387Y-53987172D01*
X74098950Y-54024860D01*
X74099500Y-54036530D01*
X74099500Y-56429192D01*
X74090061Y-56476645D01*
X74063183Y-56516870D01*
X73907130Y-56672923D01*
X73858437Y-56721616D01*
X73811283Y-56751124D01*
X73755973Y-56757049D01*
X73706626Y-56751124D01*
X73696767Y-56749940D01*
X73696765Y-56749939D01*
X73693102Y-56749500D01*
X72581898Y-56749500D01*
X72578233Y-56749940D01*
X72578218Y-56749941D01*
X72501331Y-56759174D01*
X72501324Y-56759175D01*
X72493436Y-56760123D01*
X72486040Y-56763039D01*
X72486038Y-56763040D01*
X72360551Y-56812526D01*
X72360548Y-56812527D01*
X72352658Y-56815639D01*
X72345899Y-56820764D01*
X72345898Y-56820765D01*
X72238835Y-56901953D01*
X72238830Y-56901957D01*
X72232078Y-56907078D01*
X72226957Y-56913830D01*
X72226953Y-56913835D01*
X72147600Y-57018478D01*
X72140639Y-57027658D01*
X72137527Y-57035548D01*
X72137526Y-57035551D01*
X72095128Y-57143066D01*
X72085123Y-57168436D01*
X72084175Y-57176324D01*
X72084174Y-57176331D01*
X72074941Y-57253218D01*
X72074940Y-57253233D01*
X72074500Y-57256898D01*
X72074500Y-57643102D01*
X72074940Y-57646767D01*
X72074941Y-57646781D01*
X72084174Y-57723668D01*
X72084175Y-57723674D01*
X72085123Y-57731564D01*
X72140639Y-57872342D01*
X72232078Y-57992922D01*
X72352658Y-58084361D01*
X72408493Y-58106379D01*
X72449677Y-58133058D01*
X72477289Y-58173628D01*
X72487000Y-58221732D01*
X72487000Y-58773839D01*
X72475745Y-58825458D01*
X72444024Y-58867707D01*
X72397599Y-58892913D01*
X72299610Y-58921382D01*
X72292896Y-58925352D01*
X72292895Y-58925353D01*
X72170297Y-58997857D01*
X72170293Y-58997859D01*
X72163580Y-59001830D01*
X72158065Y-59007344D01*
X72158061Y-59007348D01*
X72057348Y-59108061D01*
X72057344Y-59108065D01*
X72051830Y-59113580D01*
X72047859Y-59120293D01*
X72047857Y-59120297D01*
X71984989Y-59226601D01*
X71971382Y-59249610D01*
X71969206Y-59257099D01*
X71969205Y-59257102D01*
X71929059Y-59395284D01*
X71929057Y-59395293D01*
X71927291Y-59401373D01*
X71926794Y-59407681D01*
X71926793Y-59407690D01*
X71924691Y-59434402D01*
X71924690Y-59434418D01*
X71924500Y-59436837D01*
X71924500Y-59439281D01*
X71924500Y-59439282D01*
X71924500Y-60060738D01*
X71924500Y-60060763D01*
X71924501Y-60063162D01*
X71927291Y-60098627D01*
X71929056Y-60104704D01*
X71929058Y-60104712D01*
X71969205Y-60242897D01*
X71971382Y-60250390D01*
X72051830Y-60386420D01*
X72163580Y-60498170D01*
X72299610Y-60578618D01*
X72451373Y-60622709D01*
X72486837Y-60625500D01*
X73063162Y-60625499D01*
X73098627Y-60622709D01*
X73250390Y-60578618D01*
X73386420Y-60498170D01*
X73447771Y-60436818D01*
X73487999Y-60409939D01*
X73535452Y-60400500D01*
X73994932Y-60400500D01*
X74060903Y-60419505D01*
X74150478Y-60475789D01*
X74320745Y-60535368D01*
X74327970Y-60536182D01*
X74328558Y-60536351D01*
X74334450Y-60537696D01*
X74334374Y-60538026D01*
X74367889Y-60547679D01*
X74401775Y-60571721D01*
X74482701Y-60652647D01*
X74490565Y-60661289D01*
X74490616Y-60661351D01*
X74494798Y-60667940D01*
X74542729Y-60712951D01*
X74545848Y-60715880D01*
X74548642Y-60718588D01*
X74568966Y-60738911D01*
X74572442Y-60741607D01*
X74581322Y-60749191D01*
X74614607Y-60780448D01*
X74621437Y-60784203D01*
X74621443Y-60784207D01*
X74633207Y-60790674D01*
X74649469Y-60801357D01*
X74660068Y-60809578D01*
X74666237Y-60814363D01*
X74673395Y-60817460D01*
X74673396Y-60817461D01*
X74708138Y-60832495D01*
X74718626Y-60837633D01*
X74758632Y-60859627D01*
X74777957Y-60864588D01*
X74779183Y-60864903D01*
X74797598Y-60871207D01*
X74817074Y-60879636D01*
X74824774Y-60880855D01*
X74824776Y-60880856D01*
X74837630Y-60882891D01*
X74862174Y-60886778D01*
X74873605Y-60889146D01*
X74917823Y-60900500D01*
X74939046Y-60900500D01*
X74958443Y-60902026D01*
X74979405Y-60905347D01*
X75024859Y-60901050D01*
X75036530Y-60900500D01*
X75464548Y-60900500D01*
X75512001Y-60909939D01*
X75552229Y-60936819D01*
X75613580Y-60998170D01*
X75749610Y-61078618D01*
X75901373Y-61122709D01*
X75936837Y-61125500D01*
X76513162Y-61125499D01*
X76548627Y-61122709D01*
X76700390Y-61078618D01*
X76836420Y-60998170D01*
X76948170Y-60886420D01*
X77028618Y-60750390D01*
X77072709Y-60598627D01*
X77075500Y-60563163D01*
X77075499Y-59936838D01*
X77073961Y-59917298D01*
X77083197Y-59859692D01*
X77117758Y-59812681D01*
X77169993Y-59786681D01*
X77172325Y-59786148D01*
X77179255Y-59785368D01*
X77349522Y-59725789D01*
X77502262Y-59629816D01*
X77629816Y-59502262D01*
X77725789Y-59349522D01*
X77785368Y-59179255D01*
X77805565Y-59000000D01*
X77805294Y-58997598D01*
X77821398Y-58937499D01*
X77866785Y-58892112D01*
X77928785Y-58875499D01*
X78060305Y-58875499D01*
X78064360Y-58875499D01*
X78181762Y-58860044D01*
X78327841Y-58799536D01*
X78350870Y-58781864D01*
X78404818Y-58758125D01*
X78463640Y-58761980D01*
X78514035Y-58792560D01*
X79352593Y-59631118D01*
X79355535Y-59634162D01*
X79393529Y-59674844D01*
X79393531Y-59674845D01*
X79399320Y-59681044D01*
X79434419Y-59702388D01*
X79444914Y-59709530D01*
X79477658Y-59734361D01*
X79485543Y-59737470D01*
X79485546Y-59737472D01*
X79494349Y-59740943D01*
X79513281Y-59750345D01*
X79528618Y-59759672D01*
X79565214Y-59769925D01*
X79568181Y-59770757D01*
X79580207Y-59774800D01*
X79618436Y-59789876D01*
X79636278Y-59791710D01*
X79657051Y-59795657D01*
X79674335Y-59800500D01*
X79715418Y-59800500D01*
X79728098Y-59801149D01*
X79768972Y-59805352D01*
X79786655Y-59802303D01*
X79807725Y-59800500D01*
X80185886Y-59800500D01*
X80233339Y-59809939D01*
X80273567Y-59836819D01*
X80361191Y-59924443D01*
X80495861Y-60004087D01*
X80646108Y-60047737D01*
X80681213Y-60050500D01*
X81318786Y-60050499D01*
X81353892Y-60047737D01*
X81504139Y-60004087D01*
X81638809Y-59924443D01*
X81749443Y-59813809D01*
X81829087Y-59679139D01*
X81872737Y-59528892D01*
X81875500Y-59493787D01*
X81875499Y-58931214D01*
X81872737Y-58896108D01*
X81829087Y-58745861D01*
X81749443Y-58611191D01*
X81638809Y-58500557D01*
X81504139Y-58420913D01*
X81496651Y-58418737D01*
X81496650Y-58418737D01*
X81359969Y-58379028D01*
X81359964Y-58379027D01*
X81353892Y-58377263D01*
X81347585Y-58376766D01*
X81347582Y-58376766D01*
X81321219Y-58374691D01*
X81321208Y-58374690D01*
X81318787Y-58374500D01*
X81316342Y-58374500D01*
X80683635Y-58374500D01*
X80683609Y-58374500D01*
X80681214Y-58374501D01*
X80678824Y-58374688D01*
X80678799Y-58374690D01*
X80652424Y-58376766D01*
X80652423Y-58376766D01*
X80646108Y-58377263D01*
X80640028Y-58379029D01*
X80640024Y-58379030D01*
X80503349Y-58418737D01*
X80503344Y-58418738D01*
X80495861Y-58420913D01*
X80489151Y-58424881D01*
X80489147Y-58424883D01*
X80367908Y-58496584D01*
X80367904Y-58496586D01*
X80361191Y-58500557D01*
X80355676Y-58506071D01*
X80355672Y-58506075D01*
X80256075Y-58605672D01*
X80256071Y-58605676D01*
X80250557Y-58611191D01*
X80246588Y-58617900D01*
X80246584Y-58617907D01*
X80234335Y-58638621D01*
X80189040Y-58683210D01*
X80127603Y-58699500D01*
X80029387Y-58699500D01*
X79981934Y-58690061D01*
X79941706Y-58663181D01*
X78897405Y-57618880D01*
X78894493Y-57615868D01*
X78850680Y-57568956D01*
X78843439Y-57564552D01*
X78843431Y-57564546D01*
X78815573Y-57547605D01*
X78805081Y-57540465D01*
X78794851Y-57532708D01*
X78772342Y-57515639D01*
X78764459Y-57512530D01*
X78764450Y-57512525D01*
X78755642Y-57509052D01*
X78736713Y-57499650D01*
X78728631Y-57494735D01*
X78728624Y-57494732D01*
X78721382Y-57490328D01*
X78713216Y-57488039D01*
X78713214Y-57488039D01*
X78692715Y-57482295D01*
X78681814Y-57479240D01*
X78669786Y-57475196D01*
X78639453Y-57463235D01*
X78631564Y-57460124D01*
X78623127Y-57459256D01*
X78614890Y-57457249D01*
X78615225Y-57455873D01*
X78579512Y-57444593D01*
X78541604Y-57411822D01*
X78458228Y-57303164D01*
X78453282Y-57296718D01*
X78327841Y-57200464D01*
X78320333Y-57197354D01*
X78189271Y-57143066D01*
X78189268Y-57143065D01*
X78181762Y-57139956D01*
X78173708Y-57138895D01*
X78173702Y-57138894D01*
X78068381Y-57125029D01*
X78068377Y-57125028D01*
X78064361Y-57124500D01*
X78060307Y-57124500D01*
X77589694Y-57124500D01*
X77589678Y-57124500D01*
X77585640Y-57124501D01*
X77581626Y-57125029D01*
X77581617Y-57125030D01*
X77476296Y-57138895D01*
X77476294Y-57138895D01*
X77468238Y-57139956D01*
X77460738Y-57143062D01*
X77460729Y-57143065D01*
X77329666Y-57197354D01*
X77329662Y-57197355D01*
X77322159Y-57200464D01*
X77315714Y-57205408D01*
X77315711Y-57205411D01*
X77203164Y-57291771D01*
X77203160Y-57291774D01*
X77196718Y-57296718D01*
X77191774Y-57303160D01*
X77191771Y-57303164D01*
X77100464Y-57422159D01*
X77098797Y-57420880D01*
X77061997Y-57457678D01*
X77000000Y-57474289D01*
X76938003Y-57457678D01*
X76901202Y-57420880D01*
X76899536Y-57422159D01*
X76803282Y-57296718D01*
X76677841Y-57200464D01*
X76654570Y-57190825D01*
X76601960Y-57169033D01*
X76553560Y-57133137D01*
X76527796Y-57078664D01*
X76530752Y-57018478D01*
X76561731Y-56966792D01*
X76606130Y-56922392D01*
X76609115Y-56919507D01*
X76656044Y-56875680D01*
X76677394Y-56840568D01*
X76684539Y-56830072D01*
X76686458Y-56827542D01*
X76709361Y-56797342D01*
X76715943Y-56780648D01*
X76725352Y-56761707D01*
X76734672Y-56746382D01*
X76745758Y-56706811D01*
X76749802Y-56694786D01*
X76764876Y-56656564D01*
X76766711Y-56638713D01*
X76770660Y-56617937D01*
X76771133Y-56616250D01*
X76775500Y-56600665D01*
X76775500Y-56592178D01*
X76776017Y-56588418D01*
X76795632Y-56536604D01*
X76824989Y-56508795D01*
X76823538Y-56506925D01*
X76829703Y-56502141D01*
X76836420Y-56498170D01*
X76948170Y-56386420D01*
X77028618Y-56250390D01*
X77072709Y-56098627D01*
X77075500Y-56063163D01*
X77075499Y-55436838D01*
X77072709Y-55401373D01*
X77028618Y-55249610D01*
X76948170Y-55113580D01*
X76836420Y-55001830D01*
X76700390Y-54921382D01*
X76692897Y-54919205D01*
X76554715Y-54879059D01*
X76554708Y-54879057D01*
X76548627Y-54877291D01*
X76542316Y-54876794D01*
X76542309Y-54876793D01*
X76515597Y-54874691D01*
X76515582Y-54874690D01*
X76513163Y-54874500D01*
X76510717Y-54874500D01*
X75939261Y-54874500D01*
X75939235Y-54874500D01*
X75936838Y-54874501D01*
X75934424Y-54874690D01*
X75934421Y-54874691D01*
X75907688Y-54876794D01*
X75907686Y-54876794D01*
X75901373Y-54877291D01*
X75895297Y-54879056D01*
X75895287Y-54879058D01*
X75757102Y-54919205D01*
X75757099Y-54919206D01*
X75749610Y-54921382D01*
X75742896Y-54925352D01*
X75742895Y-54925353D01*
X75620297Y-54997857D01*
X75620293Y-54997859D01*
X75613580Y-55001830D01*
X75608062Y-55007347D01*
X75601900Y-55012128D01*
X75600533Y-55010366D01*
X75562818Y-55033479D01*
X75505102Y-55038021D01*
X75451615Y-55015866D01*
X75414015Y-54971843D01*
X75400500Y-54915548D01*
X75400500Y-54320808D01*
X75409939Y-54273355D01*
X75436816Y-54233129D01*
X75767635Y-53902309D01*
X75815454Y-53872575D01*
X75871494Y-53867055D01*
X75935639Y-53875500D01*
X76065979Y-53875499D01*
X76125960Y-53890971D01*
X76170973Y-53933527D01*
X76212854Y-54000181D01*
X76242944Y-54048068D01*
X76370498Y-54175622D01*
X76523238Y-54271595D01*
X76693505Y-54331174D01*
X76872760Y-54351371D01*
X77052015Y-54331174D01*
X77222282Y-54271595D01*
X77375022Y-54175622D01*
X77502576Y-54048068D01*
X77574546Y-53933527D01*
X77619560Y-53890971D01*
X77679541Y-53875499D01*
X78060305Y-53875499D01*
X78064360Y-53875499D01*
X78155407Y-53863513D01*
X78211447Y-53869033D01*
X78259269Y-53898771D01*
X78299524Y-53939026D01*
X78323563Y-53972905D01*
X78335063Y-54012823D01*
X78348595Y-54132923D01*
X78353836Y-54179436D01*
X78356132Y-54186000D01*
X78356134Y-54186005D01*
X78410936Y-54342619D01*
X78413415Y-54349703D01*
X78417116Y-54355593D01*
X78497099Y-54482886D01*
X78509388Y-54502443D01*
X78636942Y-54629997D01*
X78789682Y-54725970D01*
X78941079Y-54778946D01*
X78992584Y-54813361D01*
X79021015Y-54868396D01*
X79019278Y-54930316D01*
X78987805Y-54983668D01*
X78924403Y-55047071D01*
X78868881Y-55102593D01*
X78865839Y-55105532D01*
X78825155Y-55143530D01*
X78818956Y-55149320D01*
X78814551Y-55156562D01*
X78814547Y-55156568D01*
X78797604Y-55184428D01*
X78790467Y-55194915D01*
X78787881Y-55198326D01*
X78765639Y-55227658D01*
X78762528Y-55235545D01*
X78762528Y-55235546D01*
X78759054Y-55244355D01*
X78749654Y-55263279D01*
X78744737Y-55271364D01*
X78744732Y-55271375D01*
X78740328Y-55278618D01*
X78738041Y-55286778D01*
X78738039Y-55286784D01*
X78729242Y-55318181D01*
X78725197Y-55330207D01*
X78713236Y-55360540D01*
X78713233Y-55360550D01*
X78710124Y-55368436D01*
X78709256Y-55376872D01*
X78709256Y-55376874D01*
X78708288Y-55386287D01*
X78704343Y-55407044D01*
X78701787Y-55416167D01*
X78701785Y-55416175D01*
X78699500Y-55424335D01*
X78699500Y-55432812D01*
X78699500Y-55465418D01*
X78698850Y-55478099D01*
X78695515Y-55510533D01*
X78695515Y-55510537D01*
X78694648Y-55518972D01*
X78696088Y-55527329D01*
X78696089Y-55527332D01*
X78697697Y-55536656D01*
X78699500Y-55557725D01*
X78699500Y-55616560D01*
X78690061Y-55664013D01*
X78663181Y-55704241D01*
X78625112Y-55742309D01*
X78625108Y-55742313D01*
X78620184Y-55747238D01*
X78616479Y-55753133D01*
X78616476Y-55753138D01*
X78527912Y-55894087D01*
X78527910Y-55894090D01*
X78524211Y-55899978D01*
X78521915Y-55906536D01*
X78521913Y-55906543D01*
X78466930Y-56063675D01*
X78466928Y-56063682D01*
X78464632Y-56070245D01*
X78463852Y-56077162D01*
X78463852Y-56077165D01*
X78462146Y-56092309D01*
X78444435Y-56249500D01*
X78445215Y-56256423D01*
X78462605Y-56410770D01*
X78464632Y-56428755D01*
X78466928Y-56435319D01*
X78466930Y-56435324D01*
X78512738Y-56566234D01*
X78524211Y-56599022D01*
X78620184Y-56751762D01*
X78747738Y-56879316D01*
X78900478Y-56975289D01*
X79070745Y-57034868D01*
X79250000Y-57055065D01*
X79429255Y-57034868D01*
X79599522Y-56975289D01*
X79752262Y-56879316D01*
X79879816Y-56751762D01*
X79975789Y-56599022D01*
X80035368Y-56428755D01*
X80055565Y-56249500D01*
X80035368Y-56070245D01*
X79975789Y-55899978D01*
X79894405Y-55770457D01*
X79876180Y-55718370D01*
X79882358Y-55663532D01*
X79911717Y-55616807D01*
X80330199Y-55198324D01*
X80390827Y-55164993D01*
X80459880Y-55169337D01*
X80515856Y-55210005D01*
X80541327Y-55274335D01*
X80528364Y-55342299D01*
X80518786Y-55361097D01*
X80518783Y-55361104D01*
X80514354Y-55369798D01*
X80512827Y-55379432D01*
X80512826Y-55379439D01*
X80500263Y-55458762D01*
X80500262Y-55458769D01*
X80499500Y-55463583D01*
X80499500Y-55468460D01*
X80499500Y-55468461D01*
X80499500Y-56321749D01*
X80499500Y-56321761D01*
X80499501Y-56326620D01*
X80514354Y-56420406D01*
X80518780Y-56429093D01*
X80518782Y-56429098D01*
X80567519Y-56524748D01*
X80571950Y-56533444D01*
X80661658Y-56623152D01*
X80774696Y-56680748D01*
X80784336Y-56682274D01*
X80784337Y-56682275D01*
X80788555Y-56682943D01*
X80868481Y-56695602D01*
X82631518Y-56695601D01*
X82725304Y-56680748D01*
X82819705Y-56632647D01*
X82880868Y-56619229D01*
X82940790Y-56637406D01*
X82984189Y-56682544D01*
X83000000Y-56743133D01*
X83000000Y-61626000D01*
X82983387Y-61688000D01*
X82938000Y-61733387D01*
X82876000Y-61750000D01*
X65374000Y-61750000D01*
X65312000Y-61733387D01*
X65266613Y-61688000D01*
X65250000Y-61626000D01*
X65250000Y-59030984D01*
X65269106Y-58964853D01*
X65320537Y-58919101D01*
X65388444Y-58907828D01*
X65451897Y-58934506D01*
X65612920Y-59064523D01*
X65821046Y-59180790D01*
X66045829Y-59260211D01*
X66280800Y-59300500D01*
X67256866Y-59300500D01*
X67259497Y-59300500D01*
X67437541Y-59285346D01*
X67668249Y-59225275D01*
X67885486Y-59127077D01*
X68083003Y-58993579D01*
X68255118Y-58828621D01*
X68396879Y-58636947D01*
X68504207Y-58424074D01*
X68574016Y-58196123D01*
X68604298Y-57959654D01*
X68594180Y-57721468D01*
X68543954Y-57488419D01*
X68455064Y-57267210D01*
X68330069Y-57064205D01*
X68321338Y-57054285D01*
X68279966Y-57007277D01*
X68172564Y-56885245D01*
X67987080Y-56735477D01*
X67982485Y-56732910D01*
X67978112Y-56729954D01*
X67979333Y-56728147D01*
X67941806Y-56691995D01*
X67923643Y-56632294D01*
X67936857Y-56571307D01*
X67978100Y-56524480D01*
X68083003Y-56453579D01*
X68255118Y-56288621D01*
X68396879Y-56096947D01*
X68504207Y-55884074D01*
X68574016Y-55656123D01*
X68604298Y-55419654D01*
X68594180Y-55181468D01*
X68543954Y-54948419D01*
X68455064Y-54727210D01*
X68330069Y-54524205D01*
X68317917Y-54510398D01*
X68268154Y-54453856D01*
X68172564Y-54345245D01*
X67987080Y-54195477D01*
X67982485Y-54192910D01*
X67978112Y-54189954D01*
X67979333Y-54188147D01*
X67941806Y-54151995D01*
X67923643Y-54092294D01*
X67936857Y-54031307D01*
X67978100Y-53984480D01*
X68083003Y-53913579D01*
X68255118Y-53748621D01*
X68396879Y-53556947D01*
X68402482Y-53545834D01*
X68406092Y-53538675D01*
X68451801Y-53488910D01*
X68516815Y-53470500D01*
X69475500Y-53470500D01*
X69537500Y-53487113D01*
X69582887Y-53532500D01*
X69599500Y-53594500D01*
X69599500Y-54168927D01*
X69598950Y-54180596D01*
X69598941Y-54180682D01*
X69597240Y-54188296D01*
X69597485Y-54196092D01*
X69597485Y-54196093D01*
X69599439Y-54258262D01*
X69599500Y-54262157D01*
X69599500Y-54290925D01*
X69599987Y-54294785D01*
X69599989Y-54294808D01*
X69600054Y-54295320D01*
X69600968Y-54306941D01*
X69602157Y-54344775D01*
X69602158Y-54344782D01*
X69602403Y-54352569D01*
X69604577Y-54360055D01*
X69604578Y-54360056D01*
X69608323Y-54372947D01*
X69612268Y-54391997D01*
X69613950Y-54405317D01*
X69613951Y-54405324D01*
X69614929Y-54413058D01*
X69617800Y-54420309D01*
X69617802Y-54420317D01*
X69631737Y-54455515D01*
X69635520Y-54466562D01*
X69640263Y-54482886D01*
X69648256Y-54510398D01*
X69652225Y-54517109D01*
X69652228Y-54517116D01*
X69659062Y-54528672D01*
X69667620Y-54546141D01*
X69675432Y-54565871D01*
X69680016Y-54572180D01*
X69702267Y-54602808D01*
X69708677Y-54612567D01*
X69727945Y-54645146D01*
X69731919Y-54651865D01*
X69737438Y-54657384D01*
X69746922Y-54666868D01*
X69759558Y-54681662D01*
X69772037Y-54698837D01*
X69778042Y-54703805D01*
X69778048Y-54703811D01*
X69807218Y-54727942D01*
X69815859Y-54735805D01*
X69954745Y-54874691D01*
X70063181Y-54983126D01*
X70090061Y-55023354D01*
X70099500Y-55070807D01*
X70099500Y-55787487D01*
X70086556Y-55842647D01*
X70050426Y-55886289D01*
X70023718Y-55906543D01*
X69963834Y-55951954D01*
X69963830Y-55951957D01*
X69957078Y-55957078D01*
X69951957Y-55963830D01*
X69951953Y-55963835D01*
X69874785Y-56065597D01*
X69865639Y-56077658D01*
X69862527Y-56085548D01*
X69862526Y-56085551D01*
X69819052Y-56195795D01*
X69810123Y-56218436D01*
X69809175Y-56226324D01*
X69809174Y-56226331D01*
X69799941Y-56303218D01*
X69799940Y-56303233D01*
X69799500Y-56306898D01*
X69799500Y-56693102D01*
X69799940Y-56696767D01*
X69799941Y-56696781D01*
X69809174Y-56773668D01*
X69809175Y-56773674D01*
X69810123Y-56781564D01*
X69865639Y-56922342D01*
X69870765Y-56929101D01*
X69940376Y-57020898D01*
X69957078Y-57042922D01*
X70077658Y-57134361D01*
X70218436Y-57189877D01*
X70306898Y-57200500D01*
X71414401Y-57200500D01*
X71418102Y-57200500D01*
X71506564Y-57189877D01*
X71647342Y-57134361D01*
X71767922Y-57042922D01*
X71859361Y-56922342D01*
X71914877Y-56781564D01*
X71925500Y-56693102D01*
X71925500Y-56306898D01*
X71914877Y-56218436D01*
X71859361Y-56077658D01*
X71767922Y-55957078D01*
X71647342Y-55865639D01*
X71589039Y-55842647D01*
X71513965Y-55813041D01*
X71513960Y-55813039D01*
X71506564Y-55810123D01*
X71498664Y-55809174D01*
X71494116Y-55808025D01*
X71445700Y-55783547D01*
X71412368Y-55740743D01*
X71400500Y-55687805D01*
X71400500Y-54831073D01*
X71401050Y-54819404D01*
X71401058Y-54819318D01*
X71402760Y-54811704D01*
X71400561Y-54741724D01*
X71400500Y-54737829D01*
X71400500Y-54712977D01*
X71400500Y-54709075D01*
X71399948Y-54704712D01*
X71399031Y-54693063D01*
X71397598Y-54647431D01*
X71391675Y-54627045D01*
X71387729Y-54607988D01*
X71386048Y-54594681D01*
X71385071Y-54586942D01*
X71368261Y-54544487D01*
X71364481Y-54533444D01*
X71353921Y-54497095D01*
X71353920Y-54497094D01*
X71351744Y-54489602D01*
X71340940Y-54471334D01*
X71332378Y-54453856D01*
X71327439Y-54441381D01*
X71324568Y-54434129D01*
X71297737Y-54397198D01*
X71291324Y-54387436D01*
X71272052Y-54354849D01*
X71272050Y-54354847D01*
X71268081Y-54348135D01*
X71253074Y-54333128D01*
X71240436Y-54318331D01*
X71232545Y-54307470D01*
X71227963Y-54301163D01*
X71220900Y-54295320D01*
X71192780Y-54272057D01*
X71184140Y-54264194D01*
X71007126Y-54087180D01*
X70976876Y-54037817D01*
X70972334Y-53980101D01*
X70994489Y-53926614D01*
X71038512Y-53889014D01*
X71094803Y-53875499D01*
X71513162Y-53875499D01*
X71548627Y-53872709D01*
X71700390Y-53828618D01*
X71836420Y-53748170D01*
X71948170Y-53636420D01*
X72028618Y-53500390D01*
X72072709Y-53348627D01*
X72075500Y-53313163D01*
X72075499Y-52686838D01*
X72072709Y-52651373D01*
X72028618Y-52499610D01*
X71948170Y-52363580D01*
X71836420Y-52251830D01*
X71700390Y-52171382D01*
X71692897Y-52169205D01*
X71554715Y-52129059D01*
X71554708Y-52129057D01*
X71548627Y-52127291D01*
X71542316Y-52126794D01*
X71542309Y-52126793D01*
X71515597Y-52124691D01*
X71515582Y-52124690D01*
X71513163Y-52124500D01*
X71510717Y-52124500D01*
X70939261Y-52124500D01*
X70939235Y-52124500D01*
X70936838Y-52124501D01*
X70934424Y-52124690D01*
X70934421Y-52124691D01*
X70907688Y-52126794D01*
X70907686Y-52126794D01*
X70901373Y-52127291D01*
X70895295Y-52129056D01*
X70895288Y-52129058D01*
X70773037Y-52164576D01*
X70738442Y-52169500D01*
X70332177Y-52169500D01*
X70323212Y-52169500D01*
X70299977Y-52167304D01*
X70298827Y-52167084D01*
X70298822Y-52167083D01*
X70291170Y-52165624D01*
X70283391Y-52166113D01*
X70283386Y-52166113D01*
X70233457Y-52169255D01*
X70225671Y-52169500D01*
X68513431Y-52169500D01*
X68452957Y-52153754D01*
X68407842Y-52110514D01*
X68332833Y-51988692D01*
X68332825Y-51988682D01*
X68330069Y-51984205D01*
X68172564Y-51805245D01*
X68168461Y-51801932D01*
X68067580Y-51720476D01*
X68031222Y-51672181D01*
X68022019Y-51612435D01*
X68042158Y-51555438D01*
X68086852Y-51514735D01*
X68145479Y-51500000D01*
X82876000Y-51500000D01*
X82938000Y-51516613D01*
G37*
G04 #@! TD.AperFunction*
M02*
