G04 #@! TF.GenerationSoftware,KiCad,Pcbnew,(7.0.0-0)*
G04 #@! TF.CreationDate,2023-04-22T22:08:33+02:00*
G04 #@! TF.ProjectId,tiny-blackbox,74696e79-2d62-46c6-9163-6b626f782e6b,rev?*
G04 #@! TF.SameCoordinates,Original*
G04 #@! TF.FileFunction,Legend,Top*
G04 #@! TF.FilePolarity,Positive*
%FSLAX46Y46*%
G04 Gerber Fmt 4.6, Leading zero omitted, Abs format (unit mm)*
G04 Created by KiCad (PCBNEW (7.0.0-0)) date 2023-04-22 22:08:33*
%MOMM*%
%LPD*%
G01*
G04 APERTURE LIST*
G04 Aperture macros list*
%AMRoundRect*
0 Rectangle with rounded corners*
0 $1 Rounding radius*
0 $2 $3 $4 $5 $6 $7 $8 $9 X,Y pos of 4 corners*
0 Add a 4 corners polygon primitive as box body*
4,1,4,$2,$3,$4,$5,$6,$7,$8,$9,$2,$3,0*
0 Add four circle primitives for the rounded corners*
1,1,$1+$1,$2,$3*
1,1,$1+$1,$4,$5*
1,1,$1+$1,$6,$7*
1,1,$1+$1,$8,$9*
0 Add four rect primitives between the rounded corners*
20,1,$1+$1,$2,$3,$4,$5,0*
20,1,$1+$1,$4,$5,$6,$7,0*
20,1,$1+$1,$6,$7,$8,$9,0*
20,1,$1+$1,$8,$9,$2,$3,0*%
%AMFreePoly0*
4,1,14,0.230680,0.111820,0.364320,-0.021821,0.377500,-0.053642,0.377500,-0.080000,0.364320,-0.111820,0.332500,-0.125000,-0.332500,-0.125000,-0.364320,-0.111820,-0.377500,-0.080000,-0.377500,0.080000,-0.364320,0.111820,-0.332500,0.125000,0.198860,0.125000,0.230680,0.111820,0.230680,0.111820,$1*%
%AMFreePoly1*
4,1,14,0.364320,0.111820,0.377500,0.080000,0.377501,0.053640,0.364318,0.021819,0.230680,-0.111820,0.198860,-0.125000,-0.332500,-0.125000,-0.364320,-0.111820,-0.377500,-0.080000,-0.377500,0.080000,-0.364320,0.111820,-0.332500,0.125000,0.332500,0.125000,0.364320,0.111820,0.364320,0.111820,$1*%
%AMFreePoly2*
4,1,15,0.053642,0.377500,0.080000,0.377500,0.111820,0.364320,0.125000,0.332500,0.125000,-0.332500,0.111820,-0.364320,0.080000,-0.377500,-0.080000,-0.377500,-0.111820,-0.364320,-0.125000,-0.332500,-0.125000,0.198860,-0.111820,0.230680,0.021820,0.364320,0.053640,0.377501,0.053642,0.377500,0.053642,0.377500,$1*%
%AMFreePoly3*
4,1,14,-0.021820,0.364320,0.111820,0.230679,0.125000,0.198858,0.125000,-0.332500,0.111820,-0.364320,0.080000,-0.377500,-0.080000,-0.377500,-0.111820,-0.364320,-0.125000,-0.332500,-0.125000,0.332500,-0.111820,0.364320,-0.080000,0.377500,-0.053640,0.377500,-0.021820,0.364320,-0.021820,0.364320,$1*%
%AMFreePoly4*
4,1,14,0.364320,0.111820,0.377500,0.080000,0.377500,-0.080000,0.364320,-0.111820,0.332500,-0.125000,-0.198860,-0.125001,-0.230680,-0.111818,-0.364320,0.021820,-0.377500,0.053640,-0.377500,0.080000,-0.364320,0.111820,-0.332500,0.125000,0.332500,0.125000,0.364320,0.111820,0.364320,0.111820,$1*%
%AMFreePoly5*
4,1,15,-0.198858,0.125000,0.332500,0.125000,0.364320,0.111820,0.377500,0.080000,0.377500,-0.080000,0.364320,-0.111820,0.332500,-0.125000,-0.332500,-0.125000,-0.364320,-0.111820,-0.377500,-0.080000,-0.377500,-0.053640,-0.364320,-0.021819,-0.230680,0.111820,-0.198860,0.125001,-0.198858,0.125000,-0.198858,0.125000,$1*%
%AMFreePoly6*
4,1,14,0.111820,0.364320,0.125000,0.332500,0.125001,-0.198860,0.111818,-0.230680,-0.021820,-0.364320,-0.053640,-0.377500,-0.080000,-0.377500,-0.111820,-0.364320,-0.125000,-0.332500,-0.125000,0.332500,-0.111820,0.364320,-0.080000,0.377500,0.080000,0.377500,0.111820,0.364320,0.111820,0.364320,$1*%
%AMFreePoly7*
4,1,14,0.111820,0.364320,0.125000,0.332500,0.125000,-0.332500,0.111820,-0.364320,0.080000,-0.377500,0.053640,-0.377501,0.021819,-0.364318,-0.111820,-0.230680,-0.125000,-0.198860,-0.125000,0.332500,-0.111820,0.364320,-0.080000,0.377500,0.080000,0.377500,0.111820,0.364320,0.111820,0.364320,$1*%
G04 Aperture macros list end*
%ADD10C,0.150000*%
%ADD11C,0.120000*%
%ADD12RoundRect,0.150000X0.150000X-0.650000X0.150000X0.650000X-0.150000X0.650000X-0.150000X-0.650000X0*%
%ADD13FreePoly0,90.000000*%
%ADD14RoundRect,0.062500X0.062500X-0.375000X0.062500X0.375000X-0.062500X0.375000X-0.062500X-0.375000X0*%
%ADD15FreePoly1,90.000000*%
%ADD16FreePoly2,90.000000*%
%ADD17RoundRect,0.062500X0.375000X-0.062500X0.375000X0.062500X-0.375000X0.062500X-0.375000X-0.062500X0*%
%ADD18FreePoly3,90.000000*%
%ADD19FreePoly4,90.000000*%
%ADD20FreePoly5,90.000000*%
%ADD21FreePoly6,90.000000*%
%ADD22FreePoly7,90.000000*%
%ADD23C,1.000000*%
%ADD24R,2.800000X2.000000*%
%ADD25O,2.800000X2.000000*%
G04 APERTURE END LIST*
D10*
X79367380Y-56761904D02*
X80176904Y-56761904D01*
X80176904Y-56761904D02*
X80272142Y-56714285D01*
X80272142Y-56714285D02*
X80319761Y-56666666D01*
X80319761Y-56666666D02*
X80367380Y-56571428D01*
X80367380Y-56571428D02*
X80367380Y-56380952D01*
X80367380Y-56380952D02*
X80319761Y-56285714D01*
X80319761Y-56285714D02*
X80272142Y-56238095D01*
X80272142Y-56238095D02*
X80176904Y-56190476D01*
X80176904Y-56190476D02*
X79367380Y-56190476D01*
X79367380Y-55809523D02*
X79367380Y-55190476D01*
X79367380Y-55190476D02*
X79748333Y-55523809D01*
X79748333Y-55523809D02*
X79748333Y-55380952D01*
X79748333Y-55380952D02*
X79795952Y-55285714D01*
X79795952Y-55285714D02*
X79843571Y-55238095D01*
X79843571Y-55238095D02*
X79938809Y-55190476D01*
X79938809Y-55190476D02*
X80176904Y-55190476D01*
X80176904Y-55190476D02*
X80272142Y-55238095D01*
X80272142Y-55238095D02*
X80319761Y-55285714D01*
X80319761Y-55285714D02*
X80367380Y-55380952D01*
X80367380Y-55380952D02*
X80367380Y-55666666D01*
X80367380Y-55666666D02*
X80319761Y-55761904D01*
X80319761Y-55761904D02*
X80272142Y-55809523D01*
X72867380Y-56761904D02*
X73676904Y-56761904D01*
X73676904Y-56761904D02*
X73772142Y-56714285D01*
X73772142Y-56714285D02*
X73819761Y-56666666D01*
X73819761Y-56666666D02*
X73867380Y-56571428D01*
X73867380Y-56571428D02*
X73867380Y-56380952D01*
X73867380Y-56380952D02*
X73819761Y-56285714D01*
X73819761Y-56285714D02*
X73772142Y-56238095D01*
X73772142Y-56238095D02*
X73676904Y-56190476D01*
X73676904Y-56190476D02*
X72867380Y-56190476D01*
X72962619Y-55761904D02*
X72915000Y-55714285D01*
X72915000Y-55714285D02*
X72867380Y-55619047D01*
X72867380Y-55619047D02*
X72867380Y-55380952D01*
X72867380Y-55380952D02*
X72915000Y-55285714D01*
X72915000Y-55285714D02*
X72962619Y-55238095D01*
X72962619Y-55238095D02*
X73057857Y-55190476D01*
X73057857Y-55190476D02*
X73153095Y-55190476D01*
X73153095Y-55190476D02*
X73295952Y-55238095D01*
X73295952Y-55238095D02*
X73867380Y-55809523D01*
X73867380Y-55809523D02*
X73867380Y-55190476D01*
X69209523Y-58482380D02*
X68876190Y-58006190D01*
X68638095Y-58482380D02*
X68638095Y-57482380D01*
X68638095Y-57482380D02*
X69019047Y-57482380D01*
X69019047Y-57482380D02*
X69114285Y-57530000D01*
X69114285Y-57530000D02*
X69161904Y-57577619D01*
X69161904Y-57577619D02*
X69209523Y-57672857D01*
X69209523Y-57672857D02*
X69209523Y-57815714D01*
X69209523Y-57815714D02*
X69161904Y-57910952D01*
X69161904Y-57910952D02*
X69114285Y-57958571D01*
X69114285Y-57958571D02*
X69019047Y-58006190D01*
X69019047Y-58006190D02*
X68638095Y-58006190D01*
X69542857Y-57482380D02*
X70209523Y-58482380D01*
X70209523Y-57482380D02*
X69542857Y-58482380D01*
X68495238Y-54882380D02*
X69066666Y-54882380D01*
X68780952Y-55882380D02*
X68780952Y-54882380D01*
X69304762Y-54882380D02*
X69971428Y-55882380D01*
X69971428Y-54882380D02*
X69304762Y-55882380D01*
X68638095Y-60501428D02*
X69400000Y-60501428D01*
X68438095Y-52901428D02*
X69200000Y-52901428D01*
X68819047Y-53282380D02*
X68819047Y-52520476D01*
D11*
X82725000Y-58725000D02*
X82465000Y-58725000D01*
X77535000Y-58725000D02*
X77535000Y-60400000D01*
X77275000Y-56000000D02*
X77275000Y-58725000D01*
X77275000Y-58725000D02*
X77535000Y-58725000D01*
X82725000Y-53275000D02*
X82465000Y-53275000D01*
X82725000Y-56000000D02*
X82725000Y-53275000D01*
X82725000Y-56000000D02*
X82725000Y-58725000D01*
X77275000Y-53275000D02*
X77535000Y-53275000D01*
X77275000Y-56000000D02*
X77275000Y-53275000D01*
X71390000Y-57885000D02*
X71390000Y-58110000D01*
X71390000Y-53890000D02*
X71615000Y-53890000D01*
X75610000Y-58110000D02*
X75385000Y-58110000D01*
X75610000Y-53890000D02*
X75385000Y-53890000D01*
X75610000Y-57885000D02*
X75610000Y-58110000D01*
X71390000Y-54115000D02*
X71390000Y-53890000D01*
X75610000Y-54115000D02*
X75610000Y-53890000D01*
X72950000Y-60250000D02*
G75*
G03*
X72950000Y-60250000I-700000J0D01*
G01*
X73200000Y-52250000D02*
G75*
G03*
X73200000Y-52250000I-700000J0D01*
G01*
X70950000Y-52250000D02*
G75*
G03*
X70950000Y-52250000I-700000J0D01*
G01*
X76200000Y-52250000D02*
G75*
G03*
X76200000Y-52250000I-700000J0D01*
G01*
%LPC*%
D12*
X78095000Y-59600000D03*
X79365000Y-59600000D03*
X80635000Y-59600000D03*
X81905000Y-59600000D03*
X81905000Y-52400000D03*
X80635000Y-52400000D03*
X79365000Y-52400000D03*
X78095000Y-52400000D03*
D13*
X72000000Y-57997500D03*
D14*
X72500000Y-57937500D03*
X73000000Y-57937500D03*
X73500000Y-57937500D03*
X74000000Y-57937500D03*
X74500000Y-57937500D03*
D15*
X75000000Y-57997500D03*
D16*
X75497500Y-57500000D03*
D17*
X75437500Y-57000000D03*
X75437500Y-56500000D03*
X75437500Y-56000000D03*
X75437500Y-55500000D03*
X75437500Y-55000000D03*
D18*
X75497500Y-54500000D03*
D19*
X75000000Y-54002500D03*
D14*
X74500000Y-54062500D03*
X74000000Y-54062500D03*
X73500000Y-54062500D03*
X73000000Y-54062500D03*
X72500000Y-54062500D03*
D20*
X72000000Y-54002500D03*
D21*
X71502500Y-54500000D03*
D17*
X71562500Y-55000000D03*
X71562500Y-55500000D03*
X71562500Y-56000000D03*
X71562500Y-56500000D03*
X71562500Y-57000000D03*
D22*
X71502500Y-57500000D03*
D23*
X72250000Y-60250000D03*
X72500000Y-52250000D03*
X70250000Y-52250000D03*
X75500000Y-52250000D03*
D24*
X66799999Y-60439999D03*
D25*
X66799999Y-57899999D03*
X66799999Y-55359999D03*
X66799999Y-52819999D03*
M02*
