G04 #@! TF.GenerationSoftware,KiCad,Pcbnew,(7.0.0-0)*
G04 #@! TF.CreationDate,2023-04-22T22:08:33+02:00*
G04 #@! TF.ProjectId,tiny-blackbox,74696e79-2d62-46c6-9163-6b626f782e6b,rev?*
G04 #@! TF.SameCoordinates,Original*
G04 #@! TF.FileFunction,Copper,L1,Top*
G04 #@! TF.FilePolarity,Positive*
%FSLAX46Y46*%
G04 Gerber Fmt 4.6, Leading zero omitted, Abs format (unit mm)*
G04 Created by KiCad (PCBNEW (7.0.0-0)) date 2023-04-22 22:08:33*
%MOMM*%
%LPD*%
G01*
G04 APERTURE LIST*
G04 Aperture macros list*
%AMRoundRect*
0 Rectangle with rounded corners*
0 $1 Rounding radius*
0 $2 $3 $4 $5 $6 $7 $8 $9 X,Y pos of 4 corners*
0 Add a 4 corners polygon primitive as box body*
4,1,4,$2,$3,$4,$5,$6,$7,$8,$9,$2,$3,0*
0 Add four circle primitives for the rounded corners*
1,1,$1+$1,$2,$3*
1,1,$1+$1,$4,$5*
1,1,$1+$1,$6,$7*
1,1,$1+$1,$8,$9*
0 Add four rect primitives between the rounded corners*
20,1,$1+$1,$2,$3,$4,$5,0*
20,1,$1+$1,$4,$5,$6,$7,0*
20,1,$1+$1,$6,$7,$8,$9,0*
20,1,$1+$1,$8,$9,$2,$3,0*%
%AMFreePoly0*
4,1,14,0.230680,0.111820,0.364320,-0.021821,0.377500,-0.053642,0.377500,-0.080000,0.364320,-0.111820,0.332500,-0.125000,-0.332500,-0.125000,-0.364320,-0.111820,-0.377500,-0.080000,-0.377500,0.080000,-0.364320,0.111820,-0.332500,0.125000,0.198860,0.125000,0.230680,0.111820,0.230680,0.111820,$1*%
%AMFreePoly1*
4,1,14,0.364320,0.111820,0.377500,0.080000,0.377501,0.053640,0.364318,0.021819,0.230680,-0.111820,0.198860,-0.125000,-0.332500,-0.125000,-0.364320,-0.111820,-0.377500,-0.080000,-0.377500,0.080000,-0.364320,0.111820,-0.332500,0.125000,0.332500,0.125000,0.364320,0.111820,0.364320,0.111820,$1*%
%AMFreePoly2*
4,1,15,0.053642,0.377500,0.080000,0.377500,0.111820,0.364320,0.125000,0.332500,0.125000,-0.332500,0.111820,-0.364320,0.080000,-0.377500,-0.080000,-0.377500,-0.111820,-0.364320,-0.125000,-0.332500,-0.125000,0.198860,-0.111820,0.230680,0.021820,0.364320,0.053640,0.377501,0.053642,0.377500,0.053642,0.377500,$1*%
%AMFreePoly3*
4,1,14,-0.021820,0.364320,0.111820,0.230679,0.125000,0.198858,0.125000,-0.332500,0.111820,-0.364320,0.080000,-0.377500,-0.080000,-0.377500,-0.111820,-0.364320,-0.125000,-0.332500,-0.125000,0.332500,-0.111820,0.364320,-0.080000,0.377500,-0.053640,0.377500,-0.021820,0.364320,-0.021820,0.364320,$1*%
%AMFreePoly4*
4,1,14,0.364320,0.111820,0.377500,0.080000,0.377500,-0.080000,0.364320,-0.111820,0.332500,-0.125000,-0.198860,-0.125001,-0.230680,-0.111818,-0.364320,0.021820,-0.377500,0.053640,-0.377500,0.080000,-0.364320,0.111820,-0.332500,0.125000,0.332500,0.125000,0.364320,0.111820,0.364320,0.111820,$1*%
%AMFreePoly5*
4,1,15,-0.198858,0.125000,0.332500,0.125000,0.364320,0.111820,0.377500,0.080000,0.377500,-0.080000,0.364320,-0.111820,0.332500,-0.125000,-0.332500,-0.125000,-0.364320,-0.111820,-0.377500,-0.080000,-0.377500,-0.053640,-0.364320,-0.021819,-0.230680,0.111820,-0.198860,0.125001,-0.198858,0.125000,-0.198858,0.125000,$1*%
%AMFreePoly6*
4,1,14,0.111820,0.364320,0.125000,0.332500,0.125001,-0.198860,0.111818,-0.230680,-0.021820,-0.364320,-0.053640,-0.377500,-0.080000,-0.377500,-0.111820,-0.364320,-0.125000,-0.332500,-0.125000,0.332500,-0.111820,0.364320,-0.080000,0.377500,0.080000,0.377500,0.111820,0.364320,0.111820,0.364320,$1*%
%AMFreePoly7*
4,1,14,0.111820,0.364320,0.125000,0.332500,0.125000,-0.332500,0.111820,-0.364320,0.080000,-0.377500,0.053640,-0.377501,0.021819,-0.364318,-0.111820,-0.230680,-0.125000,-0.198860,-0.125000,0.332500,-0.111820,0.364320,-0.080000,0.377500,0.080000,0.377500,0.111820,0.364320,0.111820,0.364320,$1*%
G04 Aperture macros list end*
G04 #@! TA.AperFunction,SMDPad,CuDef*
%ADD10RoundRect,0.150000X0.150000X-0.650000X0.150000X0.650000X-0.150000X0.650000X-0.150000X-0.650000X0*%
G04 #@! TD*
G04 #@! TA.AperFunction,SMDPad,CuDef*
%ADD11FreePoly0,90.000000*%
G04 #@! TD*
G04 #@! TA.AperFunction,SMDPad,CuDef*
%ADD12RoundRect,0.062500X0.062500X-0.375000X0.062500X0.375000X-0.062500X0.375000X-0.062500X-0.375000X0*%
G04 #@! TD*
G04 #@! TA.AperFunction,SMDPad,CuDef*
%ADD13FreePoly1,90.000000*%
G04 #@! TD*
G04 #@! TA.AperFunction,SMDPad,CuDef*
%ADD14FreePoly2,90.000000*%
G04 #@! TD*
G04 #@! TA.AperFunction,SMDPad,CuDef*
%ADD15RoundRect,0.062500X0.375000X-0.062500X0.375000X0.062500X-0.375000X0.062500X-0.375000X-0.062500X0*%
G04 #@! TD*
G04 #@! TA.AperFunction,SMDPad,CuDef*
%ADD16FreePoly3,90.000000*%
G04 #@! TD*
G04 #@! TA.AperFunction,SMDPad,CuDef*
%ADD17FreePoly4,90.000000*%
G04 #@! TD*
G04 #@! TA.AperFunction,SMDPad,CuDef*
%ADD18FreePoly5,90.000000*%
G04 #@! TD*
G04 #@! TA.AperFunction,SMDPad,CuDef*
%ADD19FreePoly6,90.000000*%
G04 #@! TD*
G04 #@! TA.AperFunction,SMDPad,CuDef*
%ADD20FreePoly7,90.000000*%
G04 #@! TD*
G04 #@! TA.AperFunction,SMDPad,CuDef*
%ADD21C,1.000000*%
G04 #@! TD*
G04 #@! TA.AperFunction,ComponentPad*
%ADD22R,2.800000X2.000000*%
G04 #@! TD*
G04 #@! TA.AperFunction,ComponentPad*
%ADD23O,2.800000X2.000000*%
G04 #@! TD*
G04 #@! TA.AperFunction,ViaPad*
%ADD24C,0.800000*%
G04 #@! TD*
G04 #@! TA.AperFunction,Conductor*
%ADD25C,0.300000*%
G04 #@! TD*
G04 #@! TA.AperFunction,Conductor*
%ADD26C,0.500000*%
G04 #@! TD*
G04 APERTURE END LIST*
D10*
X78095000Y-59600000D03*
X79365000Y-59600000D03*
X80635000Y-59600000D03*
X81905000Y-59600000D03*
X81905000Y-52400000D03*
X80635000Y-52400000D03*
X79365000Y-52400000D03*
X78095000Y-52400000D03*
D11*
X72000000Y-57997500D03*
D12*
X72500000Y-57937500D03*
X73000000Y-57937500D03*
X73500000Y-57937500D03*
X74000000Y-57937500D03*
X74500000Y-57937500D03*
D13*
X75000000Y-57997500D03*
D14*
X75497500Y-57500000D03*
D15*
X75437500Y-57000000D03*
X75437500Y-56500000D03*
X75437500Y-56000000D03*
X75437500Y-55500000D03*
X75437500Y-55000000D03*
D16*
X75497500Y-54500000D03*
D17*
X75000000Y-54002500D03*
D12*
X74500000Y-54062500D03*
X74000000Y-54062500D03*
X73500000Y-54062500D03*
X73000000Y-54062500D03*
X72500000Y-54062500D03*
D18*
X72000000Y-54002500D03*
D19*
X71502500Y-54500000D03*
D15*
X71562500Y-55000000D03*
X71562500Y-55500000D03*
X71562500Y-56000000D03*
X71562500Y-56500000D03*
X71562500Y-57000000D03*
D20*
X71502500Y-57500000D03*
D21*
X72250000Y-60250000D03*
X72500000Y-52250000D03*
X70250000Y-52250000D03*
X75500000Y-52250000D03*
D22*
X66799999Y-60439999D03*
D23*
X66799999Y-57899999D03*
X66799999Y-55359999D03*
X66799999Y-52819999D03*
D24*
X75250000Y-59000000D03*
X76872760Y-53545806D03*
X79250000Y-56249500D03*
X77000000Y-59000000D03*
X80500000Y-54250000D03*
X73000000Y-56500000D03*
X74500000Y-59750000D03*
X74000000Y-52750000D03*
X79139204Y-54000181D03*
D25*
X73000000Y-56500000D02*
X73500000Y-56500000D01*
X73500000Y-56500000D02*
X73500000Y-57937500D01*
X75500000Y-60750000D02*
X74500000Y-59750000D01*
X80635000Y-59600000D02*
X80635000Y-60750000D01*
X80635000Y-60750000D02*
X75500000Y-60750000D01*
X75497500Y-57500000D02*
X76250000Y-57500000D01*
X76250000Y-57500000D02*
X77000000Y-58250000D01*
X77000000Y-58250000D02*
X77000000Y-59000000D01*
X77250000Y-56000000D02*
X75437500Y-56000000D01*
X77499500Y-56249500D02*
X77250000Y-56000000D01*
X79250000Y-56249500D02*
X77499500Y-56249500D01*
X72500000Y-57937500D02*
X72500000Y-60000000D01*
X72500000Y-60000000D02*
X72250000Y-60250000D01*
X72750000Y-56500000D02*
X73250000Y-56500000D01*
X74000000Y-57937500D02*
X74000000Y-58458363D01*
X74000000Y-58458363D02*
X74541637Y-59000000D01*
X74541637Y-59000000D02*
X75250000Y-59000000D01*
X74541637Y-59000000D02*
X75000000Y-59000000D01*
X75000000Y-59000000D02*
X75500000Y-59000000D01*
D26*
X78018566Y-52400000D02*
X76872760Y-53545806D01*
X78095000Y-52400000D02*
X78018566Y-52400000D01*
D25*
X72500000Y-52250000D02*
X72500000Y-54062500D01*
X70250000Y-52250000D02*
X70250000Y-52252500D01*
X70250000Y-52252500D02*
X72000000Y-54002500D01*
X75500000Y-52250000D02*
X74500000Y-52250000D01*
X74500000Y-52250000D02*
X74000000Y-52750000D01*
D26*
X78095000Y-52400000D02*
X79365000Y-52400000D01*
D25*
X80500000Y-54250000D02*
X80500000Y-52535000D01*
X80500000Y-52535000D02*
X80635000Y-52400000D01*
X74291637Y-59750000D02*
X74500000Y-59750000D01*
X73000000Y-58458363D02*
X74291637Y-59750000D01*
X73000000Y-57937500D02*
X73000000Y-58458363D01*
X78639385Y-54500000D02*
X79139204Y-54000181D01*
X75497500Y-54500000D02*
X78639385Y-54500000D01*
X75437500Y-57000000D02*
X77750000Y-57000000D01*
X78095000Y-59600000D02*
X78095000Y-57345000D01*
X78095000Y-57345000D02*
X77750000Y-57000000D01*
X75437500Y-55500000D02*
X80250000Y-55500000D01*
X80250000Y-55500000D02*
X80250000Y-57250000D01*
X80250000Y-57250000D02*
X79365000Y-58135000D01*
X79365000Y-58135000D02*
X79365000Y-59600000D01*
X75437500Y-55000000D02*
X81500000Y-55000000D01*
X81905000Y-54595000D02*
X81500000Y-55000000D01*
X81905000Y-52400000D02*
X81905000Y-54595000D01*
X71562500Y-57000000D02*
X70500000Y-57000000D01*
X70500000Y-57000000D02*
X69600000Y-57900000D01*
X69600000Y-57900000D02*
X66800000Y-57900000D01*
X71562500Y-56500000D02*
X70500000Y-56500000D01*
X70500000Y-56500000D02*
X70250000Y-56000000D01*
X70250000Y-56000000D02*
X69860000Y-55360000D01*
X69860000Y-55360000D02*
X66800000Y-55360000D01*
G04 #@! TA.AperFunction,Conductor*
G36*
X82938000Y-51516613D02*
G01*
X82983387Y-51562000D01*
X83000000Y-51624000D01*
X83000000Y-61626000D01*
X82983387Y-61688000D01*
X82938000Y-61733387D01*
X82876000Y-61750000D01*
X65374000Y-61750000D01*
X65312000Y-61733387D01*
X65266613Y-61688000D01*
X65250000Y-61626000D01*
X65250000Y-59030984D01*
X65269106Y-58964853D01*
X65320537Y-58919101D01*
X65388444Y-58907828D01*
X65451897Y-58934506D01*
X65612920Y-59064523D01*
X65821046Y-59180790D01*
X66045829Y-59260211D01*
X66280800Y-59300500D01*
X67256866Y-59300500D01*
X67259497Y-59300500D01*
X67437541Y-59285346D01*
X67668249Y-59225275D01*
X67885486Y-59127077D01*
X68083003Y-58993579D01*
X68255118Y-58828621D01*
X68396879Y-58636947D01*
X68456510Y-58518674D01*
X68502219Y-58468910D01*
X68567233Y-58450500D01*
X69588478Y-58450500D01*
X69592710Y-58450571D01*
X69656826Y-58452762D01*
X69665068Y-58450753D01*
X69665071Y-58450753D01*
X69696739Y-58443035D01*
X69709196Y-58440666D01*
X69749920Y-58435070D01*
X69766380Y-58427919D01*
X69786423Y-58421179D01*
X69803852Y-58416933D01*
X69839688Y-58396783D01*
X69851023Y-58391153D01*
X69888720Y-58374780D01*
X69902637Y-58363456D01*
X69920120Y-58351558D01*
X69935759Y-58342766D01*
X69964812Y-58313711D01*
X69974244Y-58305200D01*
X69999527Y-58284632D01*
X69999527Y-58284631D01*
X70006108Y-58279278D01*
X70016456Y-58264616D01*
X70030074Y-58248449D01*
X70555893Y-57722630D01*
X70607574Y-57691653D01*
X70667757Y-57688694D01*
X70722229Y-57714454D01*
X70758128Y-57762848D01*
X70759375Y-57765859D01*
X70759381Y-57765872D01*
X70760931Y-57769613D01*
X70813859Y-57861289D01*
X70888711Y-57936141D01*
X70895751Y-57940205D01*
X70895753Y-57940207D01*
X70954534Y-57974143D01*
X70980386Y-57989069D01*
X71014828Y-58003335D01*
X71117074Y-58030731D01*
X71221095Y-58030731D01*
X71222927Y-58030731D01*
X71223520Y-58030572D01*
X71224742Y-58030492D01*
X71345508Y-58030492D01*
X71407508Y-58047105D01*
X71452895Y-58092492D01*
X71469508Y-58154492D01*
X71469508Y-58275258D01*
X71469427Y-58276479D01*
X71469269Y-58277073D01*
X71469269Y-58382927D01*
X71471370Y-58390770D01*
X71471371Y-58390773D01*
X71492215Y-58468562D01*
X71496666Y-58485174D01*
X71498219Y-58488924D01*
X71498221Y-58488929D01*
X71500374Y-58494126D01*
X71509378Y-58515865D01*
X71509381Y-58515871D01*
X71510931Y-58519613D01*
X71563859Y-58611289D01*
X71638711Y-58686141D01*
X71645751Y-58690205D01*
X71645753Y-58690207D01*
X71704534Y-58724143D01*
X71730386Y-58739069D01*
X71764828Y-58753335D01*
X71828721Y-58770454D01*
X71857593Y-58778191D01*
X71905205Y-58802976D01*
X71937882Y-58845561D01*
X71949500Y-58897966D01*
X71949500Y-59317545D01*
X71940471Y-59363996D01*
X71914699Y-59403682D01*
X71875935Y-59430824D01*
X71797270Y-59465849D01*
X71792016Y-59469665D01*
X71792011Y-59469669D01*
X71649388Y-59573290D01*
X71649381Y-59573295D01*
X71644129Y-59577112D01*
X71639784Y-59581937D01*
X71639779Y-59581942D01*
X71521813Y-59712956D01*
X71521808Y-59712962D01*
X71517467Y-59717784D01*
X71514222Y-59723404D01*
X71514218Y-59723410D01*
X71426069Y-59876089D01*
X71426066Y-59876094D01*
X71422821Y-59881716D01*
X71420815Y-59887888D01*
X71420813Y-59887894D01*
X71366333Y-60055564D01*
X71366331Y-60055573D01*
X71364326Y-60061744D01*
X71363648Y-60068194D01*
X71363646Y-60068204D01*
X71345962Y-60236464D01*
X71344540Y-60250000D01*
X71345219Y-60256460D01*
X71363646Y-60431795D01*
X71363647Y-60431803D01*
X71364326Y-60438256D01*
X71366331Y-60444428D01*
X71366333Y-60444435D01*
X71416783Y-60599702D01*
X71422821Y-60618284D01*
X71426068Y-60623908D01*
X71426069Y-60623910D01*
X71509731Y-60768818D01*
X71517467Y-60782216D01*
X71644129Y-60922888D01*
X71797270Y-61034151D01*
X71970197Y-61111144D01*
X72155354Y-61150500D01*
X72338143Y-61150500D01*
X72344646Y-61150500D01*
X72529803Y-61111144D01*
X72702730Y-61034151D01*
X72855871Y-60922888D01*
X72982533Y-60782216D01*
X73077179Y-60618284D01*
X73135674Y-60438256D01*
X73155460Y-60250000D01*
X73135674Y-60061744D01*
X73077179Y-59881716D01*
X73067113Y-59864281D01*
X73050500Y-59802281D01*
X73050500Y-59586750D01*
X73064015Y-59530455D01*
X73101615Y-59486432D01*
X73155102Y-59464277D01*
X73212818Y-59468819D01*
X73262181Y-59499069D01*
X73706603Y-59943491D01*
X73735963Y-59990217D01*
X73774211Y-60099522D01*
X73836261Y-60198275D01*
X73864703Y-60243540D01*
X73870184Y-60252262D01*
X73997738Y-60379816D01*
X74150478Y-60475789D01*
X74320745Y-60535368D01*
X74487358Y-60554140D01*
X74527274Y-60565640D01*
X74561154Y-60589679D01*
X75102593Y-61131118D01*
X75105535Y-61134162D01*
X75143529Y-61174844D01*
X75143531Y-61174845D01*
X75149320Y-61181044D01*
X75177499Y-61198180D01*
X75184419Y-61202388D01*
X75194914Y-61209530D01*
X75227658Y-61234361D01*
X75235543Y-61237470D01*
X75235546Y-61237472D01*
X75244349Y-61240943D01*
X75263281Y-61250345D01*
X75278618Y-61259672D01*
X75314366Y-61269688D01*
X75318181Y-61270757D01*
X75330207Y-61274800D01*
X75368436Y-61289876D01*
X75386278Y-61291710D01*
X75407051Y-61295657D01*
X75424335Y-61300500D01*
X75465418Y-61300500D01*
X75478098Y-61301149D01*
X75518972Y-61305352D01*
X75536655Y-61302303D01*
X75557725Y-61300500D01*
X80611945Y-61300500D01*
X80620407Y-61300789D01*
X80672921Y-61304381D01*
X80724481Y-61293666D01*
X80732779Y-61292236D01*
X80784920Y-61285070D01*
X80792706Y-61281687D01*
X80798972Y-61279932D01*
X80806653Y-61277494D01*
X80812773Y-61275318D01*
X80821085Y-61273592D01*
X80867834Y-61249367D01*
X80875433Y-61245753D01*
X80923720Y-61224780D01*
X80930308Y-61219419D01*
X80935864Y-61216041D01*
X80942605Y-61211620D01*
X80947905Y-61207878D01*
X80955447Y-61203971D01*
X80993918Y-61168039D01*
X81000287Y-61162487D01*
X81041108Y-61129278D01*
X81046003Y-61122341D01*
X81050432Y-61117600D01*
X81055734Y-61111520D01*
X81059838Y-61106475D01*
X81066044Y-61100680D01*
X81093398Y-61055696D01*
X81098020Y-61048651D01*
X81128377Y-61005647D01*
X81131219Y-60997646D01*
X81134206Y-60991883D01*
X81137667Y-60984605D01*
X81140259Y-60978636D01*
X81144672Y-60971382D01*
X81158867Y-60920716D01*
X81161428Y-60912649D01*
X81179054Y-60863056D01*
X81179633Y-60854584D01*
X81180950Y-60848247D01*
X81182325Y-60840273D01*
X81183210Y-60833836D01*
X81185500Y-60825665D01*
X81185500Y-60773055D01*
X81185789Y-60764593D01*
X81188802Y-60720541D01*
X81189381Y-60712079D01*
X81187654Y-60703769D01*
X81187213Y-60697321D01*
X81185500Y-60680657D01*
X81185500Y-60674628D01*
X81191968Y-60635104D01*
X81210693Y-60599705D01*
X81269361Y-60522342D01*
X81324877Y-60381564D01*
X81335500Y-60293102D01*
X81335500Y-58906898D01*
X81324877Y-58818436D01*
X81269361Y-58677658D01*
X81177922Y-58557078D01*
X81155575Y-58540132D01*
X81107451Y-58503638D01*
X81057342Y-58465639D01*
X80916564Y-58410123D01*
X80908674Y-58409175D01*
X80908668Y-58409174D01*
X80831781Y-58399941D01*
X80831767Y-58399940D01*
X80828102Y-58399500D01*
X80441898Y-58399500D01*
X80438233Y-58399940D01*
X80438218Y-58399941D01*
X80361331Y-58409174D01*
X80361324Y-58409175D01*
X80353436Y-58410123D01*
X80346040Y-58413039D01*
X80346038Y-58413040D01*
X80220551Y-58462526D01*
X80220548Y-58462527D01*
X80212658Y-58465639D01*
X80114423Y-58540133D01*
X80051128Y-58564782D01*
X79984340Y-58552384D01*
X79934106Y-58506659D01*
X79915500Y-58441328D01*
X79915500Y-58414387D01*
X79924939Y-58366934D01*
X79951819Y-58326706D01*
X80119255Y-58159270D01*
X80631145Y-57647378D01*
X80634130Y-57644493D01*
X80681044Y-57600680D01*
X80702398Y-57565562D01*
X80709525Y-57555091D01*
X80734361Y-57522342D01*
X80740943Y-57505648D01*
X80750352Y-57486707D01*
X80759672Y-57471382D01*
X80770758Y-57431811D01*
X80774802Y-57419786D01*
X80789876Y-57381564D01*
X80791711Y-57363713D01*
X80795660Y-57342937D01*
X80796513Y-57339893D01*
X80800500Y-57325665D01*
X80800500Y-57284582D01*
X80801150Y-57271901D01*
X80803868Y-57245459D01*
X80805352Y-57231028D01*
X80802303Y-57213344D01*
X80800500Y-57192275D01*
X80800500Y-55674500D01*
X80817113Y-55612500D01*
X80862500Y-55567113D01*
X80924500Y-55550500D01*
X81488478Y-55550500D01*
X81492710Y-55550571D01*
X81556826Y-55552762D01*
X81565068Y-55550753D01*
X81565071Y-55550753D01*
X81596739Y-55543035D01*
X81609196Y-55540666D01*
X81649920Y-55535070D01*
X81666380Y-55527919D01*
X81686423Y-55521179D01*
X81703852Y-55516933D01*
X81739688Y-55496783D01*
X81751023Y-55491153D01*
X81788720Y-55474780D01*
X81802637Y-55463456D01*
X81820120Y-55451558D01*
X81835759Y-55442766D01*
X81864812Y-55413711D01*
X81874227Y-55405213D01*
X81906108Y-55379278D01*
X81916456Y-55364616D01*
X81930073Y-55348449D01*
X82286130Y-54992392D01*
X82289115Y-54989507D01*
X82336044Y-54945680D01*
X82357395Y-54910568D01*
X82364535Y-54900079D01*
X82389361Y-54867343D01*
X82395943Y-54850650D01*
X82405351Y-54831708D01*
X82414672Y-54816382D01*
X82425755Y-54776822D01*
X82429802Y-54764789D01*
X82444876Y-54726565D01*
X82446710Y-54708713D01*
X82450659Y-54687941D01*
X82453211Y-54678833D01*
X82453210Y-54678833D01*
X82455500Y-54670665D01*
X82455500Y-54629575D01*
X82456150Y-54616895D01*
X82459483Y-54584468D01*
X82460351Y-54576029D01*
X82457302Y-54558349D01*
X82455500Y-54537282D01*
X82455500Y-53474628D01*
X82461968Y-53435104D01*
X82480693Y-53399705D01*
X82539361Y-53322342D01*
X82594877Y-53181564D01*
X82605500Y-53093102D01*
X82605500Y-51706898D01*
X82597320Y-51638782D01*
X82608454Y-51570744D01*
X82654207Y-51519167D01*
X82720435Y-51500000D01*
X82876000Y-51500000D01*
X82938000Y-51516613D01*
G37*
G04 #@! TD.AperFunction*
G04 #@! TA.AperFunction,Conductor*
G36*
X74290954Y-54876747D02*
G01*
X74350451Y-54897567D01*
X74381728Y-54900500D01*
X74475500Y-54900500D01*
X74537500Y-54917113D01*
X74582887Y-54962500D01*
X74599500Y-55024500D01*
X74599500Y-55118272D01*
X74599769Y-55121145D01*
X74599770Y-55121157D01*
X74601728Y-55142038D01*
X74601729Y-55142043D01*
X74602433Y-55149549D01*
X74604922Y-55156663D01*
X74604923Y-55156666D01*
X74623251Y-55209045D01*
X74630209Y-55249998D01*
X74623251Y-55290951D01*
X74604924Y-55343327D01*
X74604921Y-55343340D01*
X74602433Y-55350451D01*
X74601729Y-55357954D01*
X74601728Y-55357961D01*
X74599770Y-55378842D01*
X74599769Y-55378855D01*
X74599500Y-55381728D01*
X74599500Y-55618272D01*
X74599769Y-55621145D01*
X74599770Y-55621157D01*
X74601728Y-55642038D01*
X74601729Y-55642043D01*
X74602433Y-55649549D01*
X74604922Y-55656663D01*
X74604923Y-55656666D01*
X74623251Y-55709045D01*
X74630209Y-55749998D01*
X74623251Y-55790951D01*
X74604924Y-55843327D01*
X74604921Y-55843340D01*
X74602433Y-55850451D01*
X74601729Y-55857954D01*
X74601728Y-55857961D01*
X74599770Y-55878842D01*
X74599769Y-55878855D01*
X74599500Y-55881728D01*
X74599500Y-56118272D01*
X74599769Y-56121145D01*
X74599770Y-56121157D01*
X74601728Y-56142032D01*
X74602433Y-56149549D01*
X74604923Y-56156665D01*
X74604925Y-56156674D01*
X74623251Y-56209045D01*
X74630209Y-56249998D01*
X74623251Y-56290951D01*
X74604924Y-56343327D01*
X74604921Y-56343340D01*
X74602433Y-56350451D01*
X74601729Y-56357954D01*
X74601728Y-56357961D01*
X74599770Y-56378842D01*
X74599769Y-56378855D01*
X74599500Y-56381728D01*
X74599500Y-56618272D01*
X74599769Y-56621145D01*
X74599770Y-56621157D01*
X74601728Y-56642038D01*
X74601729Y-56642043D01*
X74602433Y-56649549D01*
X74604922Y-56656663D01*
X74604923Y-56656666D01*
X74623251Y-56709045D01*
X74630209Y-56749998D01*
X74623251Y-56790951D01*
X74604924Y-56843327D01*
X74604921Y-56843340D01*
X74602433Y-56850451D01*
X74601729Y-56857954D01*
X74601728Y-56857961D01*
X74599770Y-56878842D01*
X74599769Y-56878855D01*
X74599500Y-56881728D01*
X74599500Y-56884622D01*
X74599500Y-56975500D01*
X74582887Y-57037500D01*
X74537500Y-57082887D01*
X74475500Y-57099500D01*
X74381728Y-57099500D01*
X74378855Y-57099769D01*
X74378842Y-57099770D01*
X74357961Y-57101728D01*
X74357954Y-57101729D01*
X74350451Y-57102433D01*
X74343335Y-57104922D01*
X74343330Y-57104924D01*
X74290953Y-57123251D01*
X74250000Y-57130209D01*
X74209047Y-57123251D01*
X74156669Y-57104924D01*
X74156666Y-57104923D01*
X74149549Y-57102433D01*
X74142043Y-57101729D01*
X74142038Y-57101728D01*
X74121157Y-57099770D01*
X74121145Y-57099769D01*
X74118272Y-57099500D01*
X73881728Y-57099500D01*
X73878855Y-57099769D01*
X73878842Y-57099770D01*
X73857968Y-57101728D01*
X73857967Y-57101728D01*
X73850451Y-57102433D01*
X73843330Y-57104924D01*
X73843324Y-57104926D01*
X73727479Y-57145462D01*
X73727473Y-57145464D01*
X73718711Y-57148531D01*
X73711241Y-57154043D01*
X73711237Y-57154046D01*
X73613884Y-57225895D01*
X73613881Y-57225897D01*
X73606411Y-57231411D01*
X73600897Y-57238881D01*
X73600895Y-57238884D01*
X73599771Y-57240408D01*
X73597206Y-57242573D01*
X73594321Y-57245459D01*
X73594077Y-57245215D01*
X73555882Y-57277469D01*
X73500000Y-57290775D01*
X73444118Y-57277469D01*
X73405922Y-57245215D01*
X73405679Y-57245459D01*
X73402793Y-57242573D01*
X73400229Y-57240408D01*
X73399104Y-57238884D01*
X73393589Y-57231411D01*
X73333823Y-57187302D01*
X73288762Y-57154046D01*
X73288760Y-57154045D01*
X73281289Y-57148531D01*
X73272523Y-57145463D01*
X73272520Y-57145462D01*
X73156675Y-57104926D01*
X73156671Y-57104925D01*
X73149549Y-57102433D01*
X73142019Y-57101726D01*
X73121157Y-57099770D01*
X73121145Y-57099769D01*
X73118272Y-57099500D01*
X72881728Y-57099500D01*
X72878855Y-57099769D01*
X72878842Y-57099770D01*
X72857961Y-57101728D01*
X72857954Y-57101729D01*
X72850451Y-57102433D01*
X72843335Y-57104922D01*
X72843330Y-57104924D01*
X72790953Y-57123251D01*
X72750000Y-57130209D01*
X72709047Y-57123251D01*
X72656669Y-57104924D01*
X72656666Y-57104923D01*
X72649549Y-57102433D01*
X72642043Y-57101729D01*
X72642038Y-57101728D01*
X72621157Y-57099770D01*
X72621145Y-57099769D01*
X72618272Y-57099500D01*
X72615378Y-57099500D01*
X72524500Y-57099500D01*
X72462500Y-57082887D01*
X72417113Y-57037500D01*
X72400500Y-56975500D01*
X72400500Y-56884622D01*
X72400500Y-56881728D01*
X72397567Y-56850451D01*
X72376747Y-56790951D01*
X72369789Y-56750000D01*
X72376748Y-56709045D01*
X72382714Y-56691995D01*
X72397567Y-56649549D01*
X72400500Y-56618272D01*
X72400500Y-56381728D01*
X72397567Y-56350451D01*
X72376747Y-56290951D01*
X72369789Y-56249998D01*
X72376747Y-56209046D01*
X72397567Y-56149549D01*
X72400500Y-56118272D01*
X72400500Y-55881728D01*
X72397567Y-55850451D01*
X72376747Y-55790951D01*
X72369789Y-55750000D01*
X72376748Y-55709045D01*
X72395073Y-55656675D01*
X72397567Y-55649549D01*
X72400500Y-55618272D01*
X72400500Y-55381728D01*
X72397567Y-55350451D01*
X72376747Y-55290954D01*
X72369789Y-55250000D01*
X72376748Y-55209045D01*
X72395073Y-55156675D01*
X72397567Y-55149549D01*
X72400500Y-55118272D01*
X72400500Y-55024500D01*
X72417113Y-54962500D01*
X72462500Y-54917113D01*
X72524500Y-54900500D01*
X72615378Y-54900500D01*
X72618272Y-54900500D01*
X72649549Y-54897567D01*
X72709045Y-54876747D01*
X72750000Y-54869789D01*
X72790954Y-54876747D01*
X72850451Y-54897567D01*
X72881728Y-54900500D01*
X73115378Y-54900500D01*
X73118272Y-54900500D01*
X73149549Y-54897567D01*
X73209045Y-54876747D01*
X73250000Y-54869789D01*
X73290954Y-54876747D01*
X73350451Y-54897567D01*
X73381728Y-54900500D01*
X73615378Y-54900500D01*
X73618272Y-54900500D01*
X73649549Y-54897567D01*
X73709045Y-54876747D01*
X73750000Y-54869789D01*
X73790954Y-54876747D01*
X73850451Y-54897567D01*
X73881728Y-54900500D01*
X74115378Y-54900500D01*
X74118272Y-54900500D01*
X74149549Y-54897567D01*
X74209045Y-54876747D01*
X74250000Y-54869789D01*
X74290954Y-54876747D01*
G37*
G04 #@! TD.AperFunction*
G04 #@! TA.AperFunction,Conductor*
G36*
X77345793Y-51519167D02*
G01*
X77391546Y-51570744D01*
X77402679Y-51638782D01*
X77400675Y-51655477D01*
X77394941Y-51703221D01*
X77394940Y-51703230D01*
X77394500Y-51706898D01*
X77394500Y-51710599D01*
X77394500Y-52052758D01*
X77385061Y-52100211D01*
X77358181Y-52140439D01*
X76774535Y-52724083D01*
X76740662Y-52748119D01*
X76707135Y-52757781D01*
X76707210Y-52758109D01*
X76701382Y-52759439D01*
X76700751Y-52759621D01*
X76700423Y-52759657D01*
X76700410Y-52759659D01*
X76693505Y-52760438D01*
X76686943Y-52762733D01*
X76686939Y-52762735D01*
X76529803Y-52817719D01*
X76529796Y-52817721D01*
X76523238Y-52820017D01*
X76517350Y-52823716D01*
X76517347Y-52823718D01*
X76376398Y-52912282D01*
X76376393Y-52912285D01*
X76370498Y-52915990D01*
X76365573Y-52920914D01*
X76365569Y-52920918D01*
X76247872Y-53038615D01*
X76247868Y-53038619D01*
X76242944Y-53043544D01*
X76239239Y-53049439D01*
X76239236Y-53049444D01*
X76150672Y-53190393D01*
X76150670Y-53190396D01*
X76146971Y-53196284D01*
X76144675Y-53202842D01*
X76144673Y-53202849D01*
X76089690Y-53359981D01*
X76089688Y-53359988D01*
X76087392Y-53366551D01*
X76086612Y-53373468D01*
X76086612Y-53373471D01*
X76068181Y-53537059D01*
X76067195Y-53545806D01*
X76067975Y-53552729D01*
X76074340Y-53609225D01*
X76087392Y-53725061D01*
X76089689Y-53731627D01*
X76089691Y-53731633D01*
X76108206Y-53784546D01*
X76113946Y-53842834D01*
X76092293Y-53897256D01*
X76048078Y-53935667D01*
X75991164Y-53949500D01*
X75654492Y-53949500D01*
X75592492Y-53932887D01*
X75547105Y-53887500D01*
X75530492Y-53825500D01*
X75530492Y-53724742D01*
X75530572Y-53723520D01*
X75530731Y-53722927D01*
X75530731Y-53617074D01*
X75503335Y-53514828D01*
X75489069Y-53480386D01*
X75436141Y-53388711D01*
X75361289Y-53313859D01*
X75346924Y-53305565D01*
X75273128Y-53262960D01*
X75273123Y-53262957D01*
X75269613Y-53260931D01*
X75265873Y-53259381D01*
X75265855Y-53259373D01*
X75244124Y-53250373D01*
X75235174Y-53246666D01*
X75222183Y-53243185D01*
X75140773Y-53221371D01*
X75140770Y-53221370D01*
X75132927Y-53219269D01*
X75027073Y-53219269D01*
X75026479Y-53219427D01*
X75025258Y-53219508D01*
X74974742Y-53219508D01*
X74973520Y-53219427D01*
X74972927Y-53219269D01*
X74867074Y-53219269D01*
X74859228Y-53221371D01*
X74859222Y-53221372D01*
X74767613Y-53245918D01*
X74730884Y-53250056D01*
X74694568Y-53243185D01*
X74656669Y-53229924D01*
X74656666Y-53229923D01*
X74649549Y-53227433D01*
X74642043Y-53226729D01*
X74642038Y-53226728D01*
X74621157Y-53224770D01*
X74621145Y-53224769D01*
X74618272Y-53224500D01*
X74381728Y-53224500D01*
X74378855Y-53224769D01*
X74378842Y-53224770D01*
X74357961Y-53226728D01*
X74357954Y-53226729D01*
X74350451Y-53227433D01*
X74343335Y-53229922D01*
X74343330Y-53229924D01*
X74290953Y-53248251D01*
X74250000Y-53255209D01*
X74209047Y-53248251D01*
X74156669Y-53229924D01*
X74156666Y-53229923D01*
X74149549Y-53227433D01*
X74142043Y-53226729D01*
X74142038Y-53226728D01*
X74121157Y-53224770D01*
X74121145Y-53224769D01*
X74118272Y-53224500D01*
X73881728Y-53224500D01*
X73878855Y-53224769D01*
X73878842Y-53224770D01*
X73857961Y-53226728D01*
X73857954Y-53226729D01*
X73850451Y-53227433D01*
X73843335Y-53229922D01*
X73843330Y-53229924D01*
X73790953Y-53248251D01*
X73750000Y-53255209D01*
X73709047Y-53248251D01*
X73656669Y-53229924D01*
X73656666Y-53229923D01*
X73649549Y-53227433D01*
X73642043Y-53226729D01*
X73642038Y-53226728D01*
X73621157Y-53224770D01*
X73621145Y-53224769D01*
X73618272Y-53224500D01*
X73381728Y-53224500D01*
X73378855Y-53224769D01*
X73378842Y-53224770D01*
X73357961Y-53226728D01*
X73357954Y-53226729D01*
X73350451Y-53227433D01*
X73343335Y-53229922D01*
X73343330Y-53229924D01*
X73290953Y-53248251D01*
X73250000Y-53255209D01*
X73209047Y-53248251D01*
X73156677Y-53229927D01*
X73156675Y-53229926D01*
X73149549Y-53227433D01*
X73146060Y-53227105D01*
X73097795Y-53204325D01*
X73062949Y-53161047D01*
X73050500Y-53106896D01*
X73050500Y-53026298D01*
X73064016Y-52970002D01*
X73096552Y-52931907D01*
X73095785Y-52931055D01*
X73100610Y-52926710D01*
X73105871Y-52922888D01*
X73232533Y-52782216D01*
X73327179Y-52618284D01*
X73385674Y-52438256D01*
X73405460Y-52250000D01*
X73385674Y-52061744D01*
X73327179Y-51881716D01*
X73232533Y-51717784D01*
X73222797Y-51706971D01*
X73195516Y-51657345D01*
X73193145Y-51600764D01*
X73216179Y-51549029D01*
X73259813Y-51512932D01*
X73314948Y-51500000D01*
X77279565Y-51500000D01*
X77345793Y-51519167D01*
G37*
G04 #@! TD.AperFunction*
M02*
