%TF.GenerationSoftware,KiCad,Pcbnew,(7.0.0-0)*%
%TF.CreationDate,2023-04-22T22:09:34+02:00*%
%TF.ProjectId,tiny-blackbox,74696e79-2d62-46c6-9163-6b626f782e6b,rev?*%
%TF.SameCoordinates,Original*%
%TF.FileFunction,Drillmap*%
%TF.FilePolarity,Positive*%
%FSLAX45Y45*%
G04 Gerber Fmt 4.5, Leading zero omitted, Abs format (unit mm)*
G04 Created by KiCad (PCBNEW (7.0.0-0)) date 2023-04-22 22:09:34*
%MOMM*%
%LPD*%
G01*
G04 APERTURE LIST*
%ADD10C,0.100000*%
%ADD11C,0.200000*%
%ADD12C,0.040000*%
%ADD13C,0.090000*%
G04 APERTURE END LIST*
D10*
X6500000Y-5125000D02*
X8325000Y-5125000D01*
X8325000Y-5125000D02*
X8325000Y-6200000D01*
X8325000Y-6200000D02*
X6500000Y-6200000D01*
X6500000Y-6200000D02*
X6500000Y-5125000D01*
D11*
D12*
X7280000Y-5630000D02*
X7320000Y-5670000D01*
X7320000Y-5630000D02*
X7280000Y-5670000D01*
X7380000Y-5255000D02*
X7420000Y-5295000D01*
X7420000Y-5255000D02*
X7380000Y-5295000D01*
X7430000Y-5955000D02*
X7470000Y-5995000D01*
X7470000Y-5955000D02*
X7430000Y-5995000D01*
X7505000Y-5880000D02*
X7545000Y-5920000D01*
X7545000Y-5880000D02*
X7505000Y-5920000D01*
X7667276Y-5334581D02*
X7707276Y-5374581D01*
X7707276Y-5334581D02*
X7667276Y-5374581D01*
X7680000Y-5880000D02*
X7720000Y-5920000D01*
X7720000Y-5880000D02*
X7680000Y-5920000D01*
X7893920Y-5380018D02*
X7933920Y-5420018D01*
X7933920Y-5380018D02*
X7893920Y-5420018D01*
X7905000Y-5604950D02*
X7945000Y-5644950D01*
X7945000Y-5604950D02*
X7905000Y-5644950D01*
X8030000Y-5405000D02*
X8070000Y-5445000D01*
X8070000Y-5405000D02*
X8030000Y-5445000D01*
D13*
X6725000Y-5282000D02*
G75*
G03*
X6725000Y-5282000I-45000J0D01*
G01*
X6725000Y-5536000D02*
G75*
G03*
X6725000Y-5536000I-45000J0D01*
G01*
X6725000Y-5790000D02*
G75*
G03*
X6725000Y-5790000I-45000J0D01*
G01*
X6725000Y-6044000D02*
G75*
G03*
X6725000Y-6044000I-45000J0D01*
G01*
D11*
X6742619Y-6498476D02*
X6742619Y-6298476D01*
X6742619Y-6298476D02*
X6790238Y-6298476D01*
X6790238Y-6298476D02*
X6818809Y-6308000D01*
X6818809Y-6308000D02*
X6837857Y-6327048D01*
X6837857Y-6327048D02*
X6847381Y-6346095D01*
X6847381Y-6346095D02*
X6856905Y-6384190D01*
X6856905Y-6384190D02*
X6856905Y-6412762D01*
X6856905Y-6412762D02*
X6847381Y-6450857D01*
X6847381Y-6450857D02*
X6837857Y-6469905D01*
X6837857Y-6469905D02*
X6818809Y-6488952D01*
X6818809Y-6488952D02*
X6790238Y-6498476D01*
X6790238Y-6498476D02*
X6742619Y-6498476D01*
X6942619Y-6498476D02*
X6942619Y-6365143D01*
X6942619Y-6403238D02*
X6952143Y-6384190D01*
X6952143Y-6384190D02*
X6961667Y-6374667D01*
X6961667Y-6374667D02*
X6980714Y-6365143D01*
X6980714Y-6365143D02*
X6999762Y-6365143D01*
X7066428Y-6498476D02*
X7066428Y-6365143D01*
X7066428Y-6298476D02*
X7056905Y-6308000D01*
X7056905Y-6308000D02*
X7066428Y-6317524D01*
X7066428Y-6317524D02*
X7075952Y-6308000D01*
X7075952Y-6308000D02*
X7066428Y-6298476D01*
X7066428Y-6298476D02*
X7066428Y-6317524D01*
X7190238Y-6498476D02*
X7171190Y-6488952D01*
X7171190Y-6488952D02*
X7161667Y-6469905D01*
X7161667Y-6469905D02*
X7161667Y-6298476D01*
X7295000Y-6498476D02*
X7275952Y-6488952D01*
X7275952Y-6488952D02*
X7266428Y-6469905D01*
X7266428Y-6469905D02*
X7266428Y-6298476D01*
X7491190Y-6498476D02*
X7491190Y-6298476D01*
X7491190Y-6298476D02*
X7557857Y-6441333D01*
X7557857Y-6441333D02*
X7624524Y-6298476D01*
X7624524Y-6298476D02*
X7624524Y-6498476D01*
X7805476Y-6498476D02*
X7805476Y-6393714D01*
X7805476Y-6393714D02*
X7795952Y-6374667D01*
X7795952Y-6374667D02*
X7776905Y-6365143D01*
X7776905Y-6365143D02*
X7738809Y-6365143D01*
X7738809Y-6365143D02*
X7719762Y-6374667D01*
X7805476Y-6488952D02*
X7786428Y-6498476D01*
X7786428Y-6498476D02*
X7738809Y-6498476D01*
X7738809Y-6498476D02*
X7719762Y-6488952D01*
X7719762Y-6488952D02*
X7710238Y-6469905D01*
X7710238Y-6469905D02*
X7710238Y-6450857D01*
X7710238Y-6450857D02*
X7719762Y-6431809D01*
X7719762Y-6431809D02*
X7738809Y-6422286D01*
X7738809Y-6422286D02*
X7786428Y-6422286D01*
X7786428Y-6422286D02*
X7805476Y-6412762D01*
X7900714Y-6365143D02*
X7900714Y-6565143D01*
X7900714Y-6374667D02*
X7919762Y-6365143D01*
X7919762Y-6365143D02*
X7957857Y-6365143D01*
X7957857Y-6365143D02*
X7976905Y-6374667D01*
X7976905Y-6374667D02*
X7986428Y-6384190D01*
X7986428Y-6384190D02*
X7995952Y-6403238D01*
X7995952Y-6403238D02*
X7995952Y-6460381D01*
X7995952Y-6460381D02*
X7986428Y-6479428D01*
X7986428Y-6479428D02*
X7976905Y-6488952D01*
X7976905Y-6488952D02*
X7957857Y-6498476D01*
X7957857Y-6498476D02*
X7919762Y-6498476D01*
X7919762Y-6498476D02*
X7900714Y-6488952D01*
X8081667Y-6479428D02*
X8091190Y-6488952D01*
X8091190Y-6488952D02*
X8081667Y-6498476D01*
X8081667Y-6498476D02*
X8072143Y-6488952D01*
X8072143Y-6488952D02*
X8081667Y-6479428D01*
X8081667Y-6479428D02*
X8081667Y-6498476D01*
X8081667Y-6374667D02*
X8091190Y-6384190D01*
X8091190Y-6384190D02*
X8081667Y-6393714D01*
X8081667Y-6393714D02*
X8072143Y-6384190D01*
X8072143Y-6384190D02*
X8081667Y-6374667D01*
X8081667Y-6374667D02*
X8081667Y-6393714D01*
D12*
X6455000Y-6825000D02*
X6495000Y-6865000D01*
X6495000Y-6825000D02*
X6455000Y-6865000D01*
D11*
X6780714Y-6718476D02*
X6799762Y-6718476D01*
X6799762Y-6718476D02*
X6818809Y-6728000D01*
X6818809Y-6728000D02*
X6828333Y-6737524D01*
X6828333Y-6737524D02*
X6837857Y-6756571D01*
X6837857Y-6756571D02*
X6847381Y-6794667D01*
X6847381Y-6794667D02*
X6847381Y-6842286D01*
X6847381Y-6842286D02*
X6837857Y-6880381D01*
X6837857Y-6880381D02*
X6828333Y-6899428D01*
X6828333Y-6899428D02*
X6818809Y-6908952D01*
X6818809Y-6908952D02*
X6799762Y-6918476D01*
X6799762Y-6918476D02*
X6780714Y-6918476D01*
X6780714Y-6918476D02*
X6761667Y-6908952D01*
X6761667Y-6908952D02*
X6752143Y-6899428D01*
X6752143Y-6899428D02*
X6742619Y-6880381D01*
X6742619Y-6880381D02*
X6733095Y-6842286D01*
X6733095Y-6842286D02*
X6733095Y-6794667D01*
X6733095Y-6794667D02*
X6742619Y-6756571D01*
X6742619Y-6756571D02*
X6752143Y-6737524D01*
X6752143Y-6737524D02*
X6761667Y-6728000D01*
X6761667Y-6728000D02*
X6780714Y-6718476D01*
X6933095Y-6899428D02*
X6942619Y-6908952D01*
X6942619Y-6908952D02*
X6933095Y-6918476D01*
X6933095Y-6918476D02*
X6923571Y-6908952D01*
X6923571Y-6908952D02*
X6933095Y-6899428D01*
X6933095Y-6899428D02*
X6933095Y-6918476D01*
X7114048Y-6785143D02*
X7114048Y-6918476D01*
X7066428Y-6708952D02*
X7018809Y-6851809D01*
X7018809Y-6851809D02*
X7142619Y-6851809D01*
X7256905Y-6718476D02*
X7275952Y-6718476D01*
X7275952Y-6718476D02*
X7295000Y-6728000D01*
X7295000Y-6728000D02*
X7304524Y-6737524D01*
X7304524Y-6737524D02*
X7314048Y-6756571D01*
X7314048Y-6756571D02*
X7323571Y-6794667D01*
X7323571Y-6794667D02*
X7323571Y-6842286D01*
X7323571Y-6842286D02*
X7314048Y-6880381D01*
X7314048Y-6880381D02*
X7304524Y-6899428D01*
X7304524Y-6899428D02*
X7295000Y-6908952D01*
X7295000Y-6908952D02*
X7275952Y-6918476D01*
X7275952Y-6918476D02*
X7256905Y-6918476D01*
X7256905Y-6918476D02*
X7237857Y-6908952D01*
X7237857Y-6908952D02*
X7228333Y-6899428D01*
X7228333Y-6899428D02*
X7218809Y-6880381D01*
X7218809Y-6880381D02*
X7209286Y-6842286D01*
X7209286Y-6842286D02*
X7209286Y-6794667D01*
X7209286Y-6794667D02*
X7218809Y-6756571D01*
X7218809Y-6756571D02*
X7228333Y-6737524D01*
X7228333Y-6737524D02*
X7237857Y-6728000D01*
X7237857Y-6728000D02*
X7256905Y-6718476D01*
X7447381Y-6718476D02*
X7466429Y-6718476D01*
X7466429Y-6718476D02*
X7485476Y-6728000D01*
X7485476Y-6728000D02*
X7495000Y-6737524D01*
X7495000Y-6737524D02*
X7504524Y-6756571D01*
X7504524Y-6756571D02*
X7514048Y-6794667D01*
X7514048Y-6794667D02*
X7514048Y-6842286D01*
X7514048Y-6842286D02*
X7504524Y-6880381D01*
X7504524Y-6880381D02*
X7495000Y-6899428D01*
X7495000Y-6899428D02*
X7485476Y-6908952D01*
X7485476Y-6908952D02*
X7466429Y-6918476D01*
X7466429Y-6918476D02*
X7447381Y-6918476D01*
X7447381Y-6918476D02*
X7428333Y-6908952D01*
X7428333Y-6908952D02*
X7418809Y-6899428D01*
X7418809Y-6899428D02*
X7409286Y-6880381D01*
X7409286Y-6880381D02*
X7399762Y-6842286D01*
X7399762Y-6842286D02*
X7399762Y-6794667D01*
X7399762Y-6794667D02*
X7409286Y-6756571D01*
X7409286Y-6756571D02*
X7418809Y-6737524D01*
X7418809Y-6737524D02*
X7428333Y-6728000D01*
X7428333Y-6728000D02*
X7447381Y-6718476D01*
X7599762Y-6918476D02*
X7599762Y-6785143D01*
X7599762Y-6804190D02*
X7609286Y-6794667D01*
X7609286Y-6794667D02*
X7628333Y-6785143D01*
X7628333Y-6785143D02*
X7656905Y-6785143D01*
X7656905Y-6785143D02*
X7675952Y-6794667D01*
X7675952Y-6794667D02*
X7685476Y-6813714D01*
X7685476Y-6813714D02*
X7685476Y-6918476D01*
X7685476Y-6813714D02*
X7695000Y-6794667D01*
X7695000Y-6794667D02*
X7714048Y-6785143D01*
X7714048Y-6785143D02*
X7742619Y-6785143D01*
X7742619Y-6785143D02*
X7761667Y-6794667D01*
X7761667Y-6794667D02*
X7771190Y-6813714D01*
X7771190Y-6813714D02*
X7771190Y-6918476D01*
X7866429Y-6918476D02*
X7866429Y-6785143D01*
X7866429Y-6804190D02*
X7875952Y-6794667D01*
X7875952Y-6794667D02*
X7895000Y-6785143D01*
X7895000Y-6785143D02*
X7923571Y-6785143D01*
X7923571Y-6785143D02*
X7942619Y-6794667D01*
X7942619Y-6794667D02*
X7952143Y-6813714D01*
X7952143Y-6813714D02*
X7952143Y-6918476D01*
X7952143Y-6813714D02*
X7961667Y-6794667D01*
X7961667Y-6794667D02*
X7980714Y-6785143D01*
X7980714Y-6785143D02*
X8009286Y-6785143D01*
X8009286Y-6785143D02*
X8028333Y-6794667D01*
X8028333Y-6794667D02*
X8037857Y-6813714D01*
X8037857Y-6813714D02*
X8037857Y-6918476D01*
X8395952Y-6708952D02*
X8224524Y-6966095D01*
X8620714Y-6718476D02*
X8639762Y-6718476D01*
X8639762Y-6718476D02*
X8658810Y-6728000D01*
X8658810Y-6728000D02*
X8668333Y-6737524D01*
X8668333Y-6737524D02*
X8677857Y-6756571D01*
X8677857Y-6756571D02*
X8687381Y-6794667D01*
X8687381Y-6794667D02*
X8687381Y-6842286D01*
X8687381Y-6842286D02*
X8677857Y-6880381D01*
X8677857Y-6880381D02*
X8668333Y-6899428D01*
X8668333Y-6899428D02*
X8658810Y-6908952D01*
X8658810Y-6908952D02*
X8639762Y-6918476D01*
X8639762Y-6918476D02*
X8620714Y-6918476D01*
X8620714Y-6918476D02*
X8601667Y-6908952D01*
X8601667Y-6908952D02*
X8592143Y-6899428D01*
X8592143Y-6899428D02*
X8582619Y-6880381D01*
X8582619Y-6880381D02*
X8573095Y-6842286D01*
X8573095Y-6842286D02*
X8573095Y-6794667D01*
X8573095Y-6794667D02*
X8582619Y-6756571D01*
X8582619Y-6756571D02*
X8592143Y-6737524D01*
X8592143Y-6737524D02*
X8601667Y-6728000D01*
X8601667Y-6728000D02*
X8620714Y-6718476D01*
X8773095Y-6899428D02*
X8782619Y-6908952D01*
X8782619Y-6908952D02*
X8773095Y-6918476D01*
X8773095Y-6918476D02*
X8763572Y-6908952D01*
X8763572Y-6908952D02*
X8773095Y-6899428D01*
X8773095Y-6899428D02*
X8773095Y-6918476D01*
X8906429Y-6718476D02*
X8925476Y-6718476D01*
X8925476Y-6718476D02*
X8944524Y-6728000D01*
X8944524Y-6728000D02*
X8954048Y-6737524D01*
X8954048Y-6737524D02*
X8963572Y-6756571D01*
X8963572Y-6756571D02*
X8973095Y-6794667D01*
X8973095Y-6794667D02*
X8973095Y-6842286D01*
X8973095Y-6842286D02*
X8963572Y-6880381D01*
X8963572Y-6880381D02*
X8954048Y-6899428D01*
X8954048Y-6899428D02*
X8944524Y-6908952D01*
X8944524Y-6908952D02*
X8925476Y-6918476D01*
X8925476Y-6918476D02*
X8906429Y-6918476D01*
X8906429Y-6918476D02*
X8887381Y-6908952D01*
X8887381Y-6908952D02*
X8877857Y-6899428D01*
X8877857Y-6899428D02*
X8868333Y-6880381D01*
X8868333Y-6880381D02*
X8858810Y-6842286D01*
X8858810Y-6842286D02*
X8858810Y-6794667D01*
X8858810Y-6794667D02*
X8868333Y-6756571D01*
X8868333Y-6756571D02*
X8877857Y-6737524D01*
X8877857Y-6737524D02*
X8887381Y-6728000D01*
X8887381Y-6728000D02*
X8906429Y-6718476D01*
X9163572Y-6918476D02*
X9049286Y-6918476D01*
X9106429Y-6918476D02*
X9106429Y-6718476D01*
X9106429Y-6718476D02*
X9087381Y-6747048D01*
X9087381Y-6747048D02*
X9068333Y-6766095D01*
X9068333Y-6766095D02*
X9049286Y-6775619D01*
X9344524Y-6718476D02*
X9249286Y-6718476D01*
X9249286Y-6718476D02*
X9239762Y-6813714D01*
X9239762Y-6813714D02*
X9249286Y-6804190D01*
X9249286Y-6804190D02*
X9268333Y-6794667D01*
X9268333Y-6794667D02*
X9315953Y-6794667D01*
X9315953Y-6794667D02*
X9335000Y-6804190D01*
X9335000Y-6804190D02*
X9344524Y-6813714D01*
X9344524Y-6813714D02*
X9354048Y-6832762D01*
X9354048Y-6832762D02*
X9354048Y-6880381D01*
X9354048Y-6880381D02*
X9344524Y-6899428D01*
X9344524Y-6899428D02*
X9335000Y-6908952D01*
X9335000Y-6908952D02*
X9315953Y-6918476D01*
X9315953Y-6918476D02*
X9268333Y-6918476D01*
X9268333Y-6918476D02*
X9249286Y-6908952D01*
X9249286Y-6908952D02*
X9239762Y-6899428D01*
X9420714Y-6718476D02*
X9554048Y-6718476D01*
X9554048Y-6718476D02*
X9468333Y-6918476D01*
X9620714Y-6718476D02*
X9620714Y-6756571D01*
X9696905Y-6718476D02*
X9696905Y-6756571D01*
X9959762Y-6994667D02*
X9950238Y-6985143D01*
X9950238Y-6985143D02*
X9931191Y-6956571D01*
X9931191Y-6956571D02*
X9921667Y-6937524D01*
X9921667Y-6937524D02*
X9912143Y-6908952D01*
X9912143Y-6908952D02*
X9902619Y-6861333D01*
X9902619Y-6861333D02*
X9902619Y-6823238D01*
X9902619Y-6823238D02*
X9912143Y-6775619D01*
X9912143Y-6775619D02*
X9921667Y-6747048D01*
X9921667Y-6747048D02*
X9931191Y-6728000D01*
X9931191Y-6728000D02*
X9950238Y-6699428D01*
X9950238Y-6699428D02*
X9959762Y-6689905D01*
X10045476Y-6918476D02*
X10083572Y-6918476D01*
X10083572Y-6918476D02*
X10102619Y-6908952D01*
X10102619Y-6908952D02*
X10112143Y-6899428D01*
X10112143Y-6899428D02*
X10131191Y-6870857D01*
X10131191Y-6870857D02*
X10140714Y-6832762D01*
X10140714Y-6832762D02*
X10140714Y-6756571D01*
X10140714Y-6756571D02*
X10131191Y-6737524D01*
X10131191Y-6737524D02*
X10121667Y-6728000D01*
X10121667Y-6728000D02*
X10102619Y-6718476D01*
X10102619Y-6718476D02*
X10064524Y-6718476D01*
X10064524Y-6718476D02*
X10045476Y-6728000D01*
X10045476Y-6728000D02*
X10035953Y-6737524D01*
X10035953Y-6737524D02*
X10026429Y-6756571D01*
X10026429Y-6756571D02*
X10026429Y-6804190D01*
X10026429Y-6804190D02*
X10035953Y-6823238D01*
X10035953Y-6823238D02*
X10045476Y-6832762D01*
X10045476Y-6832762D02*
X10064524Y-6842286D01*
X10064524Y-6842286D02*
X10102619Y-6842286D01*
X10102619Y-6842286D02*
X10121667Y-6832762D01*
X10121667Y-6832762D02*
X10131191Y-6823238D01*
X10131191Y-6823238D02*
X10140714Y-6804190D01*
X10346429Y-6918476D02*
X10346429Y-6718476D01*
X10432143Y-6918476D02*
X10432143Y-6813714D01*
X10432143Y-6813714D02*
X10422619Y-6794667D01*
X10422619Y-6794667D02*
X10403572Y-6785143D01*
X10403572Y-6785143D02*
X10375000Y-6785143D01*
X10375000Y-6785143D02*
X10355953Y-6794667D01*
X10355953Y-6794667D02*
X10346429Y-6804190D01*
X10555953Y-6918476D02*
X10536905Y-6908952D01*
X10536905Y-6908952D02*
X10527381Y-6899428D01*
X10527381Y-6899428D02*
X10517857Y-6880381D01*
X10517857Y-6880381D02*
X10517857Y-6823238D01*
X10517857Y-6823238D02*
X10527381Y-6804190D01*
X10527381Y-6804190D02*
X10536905Y-6794667D01*
X10536905Y-6794667D02*
X10555953Y-6785143D01*
X10555953Y-6785143D02*
X10584524Y-6785143D01*
X10584524Y-6785143D02*
X10603572Y-6794667D01*
X10603572Y-6794667D02*
X10613095Y-6804190D01*
X10613095Y-6804190D02*
X10622619Y-6823238D01*
X10622619Y-6823238D02*
X10622619Y-6880381D01*
X10622619Y-6880381D02*
X10613095Y-6899428D01*
X10613095Y-6899428D02*
X10603572Y-6908952D01*
X10603572Y-6908952D02*
X10584524Y-6918476D01*
X10584524Y-6918476D02*
X10555953Y-6918476D01*
X10736905Y-6918476D02*
X10717857Y-6908952D01*
X10717857Y-6908952D02*
X10708334Y-6889905D01*
X10708334Y-6889905D02*
X10708334Y-6718476D01*
X10889286Y-6908952D02*
X10870238Y-6918476D01*
X10870238Y-6918476D02*
X10832143Y-6918476D01*
X10832143Y-6918476D02*
X10813095Y-6908952D01*
X10813095Y-6908952D02*
X10803572Y-6889905D01*
X10803572Y-6889905D02*
X10803572Y-6813714D01*
X10803572Y-6813714D02*
X10813095Y-6794667D01*
X10813095Y-6794667D02*
X10832143Y-6785143D01*
X10832143Y-6785143D02*
X10870238Y-6785143D01*
X10870238Y-6785143D02*
X10889286Y-6794667D01*
X10889286Y-6794667D02*
X10898810Y-6813714D01*
X10898810Y-6813714D02*
X10898810Y-6832762D01*
X10898810Y-6832762D02*
X10803572Y-6851809D01*
X10975000Y-6908952D02*
X10994048Y-6918476D01*
X10994048Y-6918476D02*
X11032143Y-6918476D01*
X11032143Y-6918476D02*
X11051191Y-6908952D01*
X11051191Y-6908952D02*
X11060715Y-6889905D01*
X11060715Y-6889905D02*
X11060715Y-6880381D01*
X11060715Y-6880381D02*
X11051191Y-6861333D01*
X11051191Y-6861333D02*
X11032143Y-6851809D01*
X11032143Y-6851809D02*
X11003572Y-6851809D01*
X11003572Y-6851809D02*
X10984524Y-6842286D01*
X10984524Y-6842286D02*
X10975000Y-6823238D01*
X10975000Y-6823238D02*
X10975000Y-6813714D01*
X10975000Y-6813714D02*
X10984524Y-6794667D01*
X10984524Y-6794667D02*
X11003572Y-6785143D01*
X11003572Y-6785143D02*
X11032143Y-6785143D01*
X11032143Y-6785143D02*
X11051191Y-6794667D01*
X11127381Y-6994667D02*
X11136905Y-6985143D01*
X11136905Y-6985143D02*
X11155953Y-6956571D01*
X11155953Y-6956571D02*
X11165476Y-6937524D01*
X11165476Y-6937524D02*
X11175000Y-6908952D01*
X11175000Y-6908952D02*
X11184524Y-6861333D01*
X11184524Y-6861333D02*
X11184524Y-6823238D01*
X11184524Y-6823238D02*
X11175000Y-6775619D01*
X11175000Y-6775619D02*
X11165476Y-6747048D01*
X11165476Y-6747048D02*
X11155953Y-6728000D01*
X11155953Y-6728000D02*
X11136905Y-6699428D01*
X11136905Y-6699428D02*
X11127381Y-6689905D01*
D13*
X6495000Y-7109000D02*
G75*
G03*
X6495000Y-7109000I-45000J0D01*
G01*
D11*
X6780714Y-6982476D02*
X6799762Y-6982476D01*
X6799762Y-6982476D02*
X6818809Y-6992000D01*
X6818809Y-6992000D02*
X6828333Y-7001524D01*
X6828333Y-7001524D02*
X6837857Y-7020571D01*
X6837857Y-7020571D02*
X6847381Y-7058667D01*
X6847381Y-7058667D02*
X6847381Y-7106286D01*
X6847381Y-7106286D02*
X6837857Y-7144381D01*
X6837857Y-7144381D02*
X6828333Y-7163428D01*
X6828333Y-7163428D02*
X6818809Y-7172952D01*
X6818809Y-7172952D02*
X6799762Y-7182476D01*
X6799762Y-7182476D02*
X6780714Y-7182476D01*
X6780714Y-7182476D02*
X6761667Y-7172952D01*
X6761667Y-7172952D02*
X6752143Y-7163428D01*
X6752143Y-7163428D02*
X6742619Y-7144381D01*
X6742619Y-7144381D02*
X6733095Y-7106286D01*
X6733095Y-7106286D02*
X6733095Y-7058667D01*
X6733095Y-7058667D02*
X6742619Y-7020571D01*
X6742619Y-7020571D02*
X6752143Y-7001524D01*
X6752143Y-7001524D02*
X6761667Y-6992000D01*
X6761667Y-6992000D02*
X6780714Y-6982476D01*
X6933095Y-7163428D02*
X6942619Y-7172952D01*
X6942619Y-7172952D02*
X6933095Y-7182476D01*
X6933095Y-7182476D02*
X6923571Y-7172952D01*
X6923571Y-7172952D02*
X6933095Y-7163428D01*
X6933095Y-7163428D02*
X6933095Y-7182476D01*
X7037857Y-7182476D02*
X7075952Y-7182476D01*
X7075952Y-7182476D02*
X7095000Y-7172952D01*
X7095000Y-7172952D02*
X7104524Y-7163428D01*
X7104524Y-7163428D02*
X7123571Y-7134857D01*
X7123571Y-7134857D02*
X7133095Y-7096762D01*
X7133095Y-7096762D02*
X7133095Y-7020571D01*
X7133095Y-7020571D02*
X7123571Y-7001524D01*
X7123571Y-7001524D02*
X7114048Y-6992000D01*
X7114048Y-6992000D02*
X7095000Y-6982476D01*
X7095000Y-6982476D02*
X7056905Y-6982476D01*
X7056905Y-6982476D02*
X7037857Y-6992000D01*
X7037857Y-6992000D02*
X7028333Y-7001524D01*
X7028333Y-7001524D02*
X7018809Y-7020571D01*
X7018809Y-7020571D02*
X7018809Y-7068190D01*
X7018809Y-7068190D02*
X7028333Y-7087238D01*
X7028333Y-7087238D02*
X7037857Y-7096762D01*
X7037857Y-7096762D02*
X7056905Y-7106286D01*
X7056905Y-7106286D02*
X7095000Y-7106286D01*
X7095000Y-7106286D02*
X7114048Y-7096762D01*
X7114048Y-7096762D02*
X7123571Y-7087238D01*
X7123571Y-7087238D02*
X7133095Y-7068190D01*
X7256905Y-6982476D02*
X7275952Y-6982476D01*
X7275952Y-6982476D02*
X7295000Y-6992000D01*
X7295000Y-6992000D02*
X7304524Y-7001524D01*
X7304524Y-7001524D02*
X7314048Y-7020571D01*
X7314048Y-7020571D02*
X7323571Y-7058667D01*
X7323571Y-7058667D02*
X7323571Y-7106286D01*
X7323571Y-7106286D02*
X7314048Y-7144381D01*
X7314048Y-7144381D02*
X7304524Y-7163428D01*
X7304524Y-7163428D02*
X7295000Y-7172952D01*
X7295000Y-7172952D02*
X7275952Y-7182476D01*
X7275952Y-7182476D02*
X7256905Y-7182476D01*
X7256905Y-7182476D02*
X7237857Y-7172952D01*
X7237857Y-7172952D02*
X7228333Y-7163428D01*
X7228333Y-7163428D02*
X7218809Y-7144381D01*
X7218809Y-7144381D02*
X7209286Y-7106286D01*
X7209286Y-7106286D02*
X7209286Y-7058667D01*
X7209286Y-7058667D02*
X7218809Y-7020571D01*
X7218809Y-7020571D02*
X7228333Y-7001524D01*
X7228333Y-7001524D02*
X7237857Y-6992000D01*
X7237857Y-6992000D02*
X7256905Y-6982476D01*
X7447381Y-6982476D02*
X7466429Y-6982476D01*
X7466429Y-6982476D02*
X7485476Y-6992000D01*
X7485476Y-6992000D02*
X7495000Y-7001524D01*
X7495000Y-7001524D02*
X7504524Y-7020571D01*
X7504524Y-7020571D02*
X7514048Y-7058667D01*
X7514048Y-7058667D02*
X7514048Y-7106286D01*
X7514048Y-7106286D02*
X7504524Y-7144381D01*
X7504524Y-7144381D02*
X7495000Y-7163428D01*
X7495000Y-7163428D02*
X7485476Y-7172952D01*
X7485476Y-7172952D02*
X7466429Y-7182476D01*
X7466429Y-7182476D02*
X7447381Y-7182476D01*
X7447381Y-7182476D02*
X7428333Y-7172952D01*
X7428333Y-7172952D02*
X7418809Y-7163428D01*
X7418809Y-7163428D02*
X7409286Y-7144381D01*
X7409286Y-7144381D02*
X7399762Y-7106286D01*
X7399762Y-7106286D02*
X7399762Y-7058667D01*
X7399762Y-7058667D02*
X7409286Y-7020571D01*
X7409286Y-7020571D02*
X7418809Y-7001524D01*
X7418809Y-7001524D02*
X7428333Y-6992000D01*
X7428333Y-6992000D02*
X7447381Y-6982476D01*
X7599762Y-7182476D02*
X7599762Y-7049143D01*
X7599762Y-7068190D02*
X7609286Y-7058667D01*
X7609286Y-7058667D02*
X7628333Y-7049143D01*
X7628333Y-7049143D02*
X7656905Y-7049143D01*
X7656905Y-7049143D02*
X7675952Y-7058667D01*
X7675952Y-7058667D02*
X7685476Y-7077714D01*
X7685476Y-7077714D02*
X7685476Y-7182476D01*
X7685476Y-7077714D02*
X7695000Y-7058667D01*
X7695000Y-7058667D02*
X7714048Y-7049143D01*
X7714048Y-7049143D02*
X7742619Y-7049143D01*
X7742619Y-7049143D02*
X7761667Y-7058667D01*
X7761667Y-7058667D02*
X7771190Y-7077714D01*
X7771190Y-7077714D02*
X7771190Y-7182476D01*
X7866429Y-7182476D02*
X7866429Y-7049143D01*
X7866429Y-7068190D02*
X7875952Y-7058667D01*
X7875952Y-7058667D02*
X7895000Y-7049143D01*
X7895000Y-7049143D02*
X7923571Y-7049143D01*
X7923571Y-7049143D02*
X7942619Y-7058667D01*
X7942619Y-7058667D02*
X7952143Y-7077714D01*
X7952143Y-7077714D02*
X7952143Y-7182476D01*
X7952143Y-7077714D02*
X7961667Y-7058667D01*
X7961667Y-7058667D02*
X7980714Y-7049143D01*
X7980714Y-7049143D02*
X8009286Y-7049143D01*
X8009286Y-7049143D02*
X8028333Y-7058667D01*
X8028333Y-7058667D02*
X8037857Y-7077714D01*
X8037857Y-7077714D02*
X8037857Y-7182476D01*
X8395952Y-6972952D02*
X8224524Y-7230095D01*
X8620714Y-6982476D02*
X8639762Y-6982476D01*
X8639762Y-6982476D02*
X8658810Y-6992000D01*
X8658810Y-6992000D02*
X8668333Y-7001524D01*
X8668333Y-7001524D02*
X8677857Y-7020571D01*
X8677857Y-7020571D02*
X8687381Y-7058667D01*
X8687381Y-7058667D02*
X8687381Y-7106286D01*
X8687381Y-7106286D02*
X8677857Y-7144381D01*
X8677857Y-7144381D02*
X8668333Y-7163428D01*
X8668333Y-7163428D02*
X8658810Y-7172952D01*
X8658810Y-7172952D02*
X8639762Y-7182476D01*
X8639762Y-7182476D02*
X8620714Y-7182476D01*
X8620714Y-7182476D02*
X8601667Y-7172952D01*
X8601667Y-7172952D02*
X8592143Y-7163428D01*
X8592143Y-7163428D02*
X8582619Y-7144381D01*
X8582619Y-7144381D02*
X8573095Y-7106286D01*
X8573095Y-7106286D02*
X8573095Y-7058667D01*
X8573095Y-7058667D02*
X8582619Y-7020571D01*
X8582619Y-7020571D02*
X8592143Y-7001524D01*
X8592143Y-7001524D02*
X8601667Y-6992000D01*
X8601667Y-6992000D02*
X8620714Y-6982476D01*
X8773095Y-7163428D02*
X8782619Y-7172952D01*
X8782619Y-7172952D02*
X8773095Y-7182476D01*
X8773095Y-7182476D02*
X8763572Y-7172952D01*
X8763572Y-7172952D02*
X8773095Y-7163428D01*
X8773095Y-7163428D02*
X8773095Y-7182476D01*
X8906429Y-6982476D02*
X8925476Y-6982476D01*
X8925476Y-6982476D02*
X8944524Y-6992000D01*
X8944524Y-6992000D02*
X8954048Y-7001524D01*
X8954048Y-7001524D02*
X8963572Y-7020571D01*
X8963572Y-7020571D02*
X8973095Y-7058667D01*
X8973095Y-7058667D02*
X8973095Y-7106286D01*
X8973095Y-7106286D02*
X8963572Y-7144381D01*
X8963572Y-7144381D02*
X8954048Y-7163428D01*
X8954048Y-7163428D02*
X8944524Y-7172952D01*
X8944524Y-7172952D02*
X8925476Y-7182476D01*
X8925476Y-7182476D02*
X8906429Y-7182476D01*
X8906429Y-7182476D02*
X8887381Y-7172952D01*
X8887381Y-7172952D02*
X8877857Y-7163428D01*
X8877857Y-7163428D02*
X8868333Y-7144381D01*
X8868333Y-7144381D02*
X8858810Y-7106286D01*
X8858810Y-7106286D02*
X8858810Y-7058667D01*
X8858810Y-7058667D02*
X8868333Y-7020571D01*
X8868333Y-7020571D02*
X8877857Y-7001524D01*
X8877857Y-7001524D02*
X8887381Y-6992000D01*
X8887381Y-6992000D02*
X8906429Y-6982476D01*
X9039762Y-6982476D02*
X9163572Y-6982476D01*
X9163572Y-6982476D02*
X9096905Y-7058667D01*
X9096905Y-7058667D02*
X9125476Y-7058667D01*
X9125476Y-7058667D02*
X9144524Y-7068190D01*
X9144524Y-7068190D02*
X9154048Y-7077714D01*
X9154048Y-7077714D02*
X9163572Y-7096762D01*
X9163572Y-7096762D02*
X9163572Y-7144381D01*
X9163572Y-7144381D02*
X9154048Y-7163428D01*
X9154048Y-7163428D02*
X9144524Y-7172952D01*
X9144524Y-7172952D02*
X9125476Y-7182476D01*
X9125476Y-7182476D02*
X9068333Y-7182476D01*
X9068333Y-7182476D02*
X9049286Y-7172952D01*
X9049286Y-7172952D02*
X9039762Y-7163428D01*
X9344524Y-6982476D02*
X9249286Y-6982476D01*
X9249286Y-6982476D02*
X9239762Y-7077714D01*
X9239762Y-7077714D02*
X9249286Y-7068190D01*
X9249286Y-7068190D02*
X9268333Y-7058667D01*
X9268333Y-7058667D02*
X9315953Y-7058667D01*
X9315953Y-7058667D02*
X9335000Y-7068190D01*
X9335000Y-7068190D02*
X9344524Y-7077714D01*
X9344524Y-7077714D02*
X9354048Y-7096762D01*
X9354048Y-7096762D02*
X9354048Y-7144381D01*
X9354048Y-7144381D02*
X9344524Y-7163428D01*
X9344524Y-7163428D02*
X9335000Y-7172952D01*
X9335000Y-7172952D02*
X9315953Y-7182476D01*
X9315953Y-7182476D02*
X9268333Y-7182476D01*
X9268333Y-7182476D02*
X9249286Y-7172952D01*
X9249286Y-7172952D02*
X9239762Y-7163428D01*
X9525476Y-7049143D02*
X9525476Y-7182476D01*
X9477857Y-6972952D02*
X9430238Y-7115809D01*
X9430238Y-7115809D02*
X9554048Y-7115809D01*
X9620714Y-6982476D02*
X9620714Y-7020571D01*
X9696905Y-6982476D02*
X9696905Y-7020571D01*
X9959762Y-7258667D02*
X9950238Y-7249143D01*
X9950238Y-7249143D02*
X9931191Y-7220571D01*
X9931191Y-7220571D02*
X9921667Y-7201524D01*
X9921667Y-7201524D02*
X9912143Y-7172952D01*
X9912143Y-7172952D02*
X9902619Y-7125333D01*
X9902619Y-7125333D02*
X9902619Y-7087238D01*
X9902619Y-7087238D02*
X9912143Y-7039619D01*
X9912143Y-7039619D02*
X9921667Y-7011048D01*
X9921667Y-7011048D02*
X9931191Y-6992000D01*
X9931191Y-6992000D02*
X9950238Y-6963428D01*
X9950238Y-6963428D02*
X9959762Y-6953905D01*
X10121667Y-7049143D02*
X10121667Y-7182476D01*
X10074048Y-6972952D02*
X10026429Y-7115809D01*
X10026429Y-7115809D02*
X10150238Y-7115809D01*
X10346429Y-7182476D02*
X10346429Y-6982476D01*
X10432143Y-7182476D02*
X10432143Y-7077714D01*
X10432143Y-7077714D02*
X10422619Y-7058667D01*
X10422619Y-7058667D02*
X10403572Y-7049143D01*
X10403572Y-7049143D02*
X10375000Y-7049143D01*
X10375000Y-7049143D02*
X10355953Y-7058667D01*
X10355953Y-7058667D02*
X10346429Y-7068190D01*
X10555953Y-7182476D02*
X10536905Y-7172952D01*
X10536905Y-7172952D02*
X10527381Y-7163428D01*
X10527381Y-7163428D02*
X10517857Y-7144381D01*
X10517857Y-7144381D02*
X10517857Y-7087238D01*
X10517857Y-7087238D02*
X10527381Y-7068190D01*
X10527381Y-7068190D02*
X10536905Y-7058667D01*
X10536905Y-7058667D02*
X10555953Y-7049143D01*
X10555953Y-7049143D02*
X10584524Y-7049143D01*
X10584524Y-7049143D02*
X10603572Y-7058667D01*
X10603572Y-7058667D02*
X10613095Y-7068190D01*
X10613095Y-7068190D02*
X10622619Y-7087238D01*
X10622619Y-7087238D02*
X10622619Y-7144381D01*
X10622619Y-7144381D02*
X10613095Y-7163428D01*
X10613095Y-7163428D02*
X10603572Y-7172952D01*
X10603572Y-7172952D02*
X10584524Y-7182476D01*
X10584524Y-7182476D02*
X10555953Y-7182476D01*
X10736905Y-7182476D02*
X10717857Y-7172952D01*
X10717857Y-7172952D02*
X10708334Y-7153905D01*
X10708334Y-7153905D02*
X10708334Y-6982476D01*
X10889286Y-7172952D02*
X10870238Y-7182476D01*
X10870238Y-7182476D02*
X10832143Y-7182476D01*
X10832143Y-7182476D02*
X10813095Y-7172952D01*
X10813095Y-7172952D02*
X10803572Y-7153905D01*
X10803572Y-7153905D02*
X10803572Y-7077714D01*
X10803572Y-7077714D02*
X10813095Y-7058667D01*
X10813095Y-7058667D02*
X10832143Y-7049143D01*
X10832143Y-7049143D02*
X10870238Y-7049143D01*
X10870238Y-7049143D02*
X10889286Y-7058667D01*
X10889286Y-7058667D02*
X10898810Y-7077714D01*
X10898810Y-7077714D02*
X10898810Y-7096762D01*
X10898810Y-7096762D02*
X10803572Y-7115809D01*
X10975000Y-7172952D02*
X10994048Y-7182476D01*
X10994048Y-7182476D02*
X11032143Y-7182476D01*
X11032143Y-7182476D02*
X11051191Y-7172952D01*
X11051191Y-7172952D02*
X11060715Y-7153905D01*
X11060715Y-7153905D02*
X11060715Y-7144381D01*
X11060715Y-7144381D02*
X11051191Y-7125333D01*
X11051191Y-7125333D02*
X11032143Y-7115809D01*
X11032143Y-7115809D02*
X11003572Y-7115809D01*
X11003572Y-7115809D02*
X10984524Y-7106286D01*
X10984524Y-7106286D02*
X10975000Y-7087238D01*
X10975000Y-7087238D02*
X10975000Y-7077714D01*
X10975000Y-7077714D02*
X10984524Y-7058667D01*
X10984524Y-7058667D02*
X11003572Y-7049143D01*
X11003572Y-7049143D02*
X11032143Y-7049143D01*
X11032143Y-7049143D02*
X11051191Y-7058667D01*
X11127381Y-7258667D02*
X11136905Y-7249143D01*
X11136905Y-7249143D02*
X11155953Y-7220571D01*
X11155953Y-7220571D02*
X11165476Y-7201524D01*
X11165476Y-7201524D02*
X11175000Y-7172952D01*
X11175000Y-7172952D02*
X11184524Y-7125333D01*
X11184524Y-7125333D02*
X11184524Y-7087238D01*
X11184524Y-7087238D02*
X11175000Y-7039619D01*
X11175000Y-7039619D02*
X11165476Y-7011048D01*
X11165476Y-7011048D02*
X11155953Y-6992000D01*
X11155953Y-6992000D02*
X11136905Y-6963428D01*
X11136905Y-6963428D02*
X11127381Y-6953905D01*
M02*
