G04 #@! TF.GenerationSoftware,KiCad,Pcbnew,(7.0.0-0)*
G04 #@! TF.CreationDate,2023-04-22T22:08:33+02:00*
G04 #@! TF.ProjectId,tiny-blackbox,74696e79-2d62-46c6-9163-6b626f782e6b,rev?*
G04 #@! TF.SameCoordinates,Original*
G04 #@! TF.FileFunction,Legend,Bot*
G04 #@! TF.FilePolarity,Positive*
%FSLAX46Y46*%
G04 Gerber Fmt 4.6, Leading zero omitted, Abs format (unit mm)*
G04 Created by KiCad (PCBNEW (7.0.0-0)) date 2023-04-22 22:08:33*
%MOMM*%
%LPD*%
G01*
G04 APERTURE LIST*
G04 Aperture macros list*
%AMRoundRect*
0 Rectangle with rounded corners*
0 $1 Rounding radius*
0 $2 $3 $4 $5 $6 $7 $8 $9 X,Y pos of 4 corners*
0 Add a 4 corners polygon primitive as box body*
4,1,4,$2,$3,$4,$5,$6,$7,$8,$9,$2,$3,0*
0 Add four circle primitives for the rounded corners*
1,1,$1+$1,$2,$3*
1,1,$1+$1,$4,$5*
1,1,$1+$1,$6,$7*
1,1,$1+$1,$8,$9*
0 Add four rect primitives between the rounded corners*
20,1,$1+$1,$2,$3,$4,$5,0*
20,1,$1+$1,$4,$5,$6,$7,0*
20,1,$1+$1,$6,$7,$8,$9,0*
20,1,$1+$1,$8,$9,$2,$3,0*%
G04 Aperture macros list end*
%ADD10C,0.150000*%
%ADD11C,0.120000*%
%ADD12C,0.152400*%
%ADD13R,1.700000X0.800000*%
%ADD14RoundRect,0.200000X-0.200000X-0.275000X0.200000X-0.275000X0.200000X0.275000X-0.200000X0.275000X0*%
%ADD15RoundRect,0.150000X0.512500X0.150000X-0.512500X0.150000X-0.512500X-0.150000X0.512500X-0.150000X0*%
%ADD16R,2.800000X2.000000*%
%ADD17O,2.800000X2.000000*%
%ADD18RoundRect,0.218750X0.256250X-0.218750X0.256250X0.218750X-0.256250X0.218750X-0.256250X-0.218750X0*%
%ADD19RoundRect,0.225000X0.225000X0.250000X-0.225000X0.250000X-0.225000X-0.250000X0.225000X-0.250000X0*%
%ADD20RoundRect,0.225000X-0.225000X-0.250000X0.225000X-0.250000X0.225000X0.250000X-0.225000X0.250000X0*%
G04 APERTURE END LIST*
D10*
X82382619Y-54957004D02*
X81573095Y-54957004D01*
X81573095Y-54957004D02*
X81477857Y-54909385D01*
X81477857Y-54909385D02*
X81430238Y-54861766D01*
X81430238Y-54861766D02*
X81382619Y-54766528D01*
X81382619Y-54766528D02*
X81382619Y-54576052D01*
X81382619Y-54576052D02*
X81430238Y-54480814D01*
X81430238Y-54480814D02*
X81477857Y-54433195D01*
X81477857Y-54433195D02*
X81573095Y-54385576D01*
X81573095Y-54385576D02*
X82382619Y-54385576D01*
X82049285Y-53480814D02*
X81382619Y-53480814D01*
X82430238Y-53718909D02*
X81715952Y-53957004D01*
X81715952Y-53957004D02*
X81715952Y-53337957D01*
X79617380Y-52333333D02*
X79141190Y-52000000D01*
X79617380Y-51761905D02*
X78617380Y-51761905D01*
X78617380Y-51761905D02*
X78617380Y-52142857D01*
X78617380Y-52142857D02*
X78665000Y-52238095D01*
X78665000Y-52238095D02*
X78712619Y-52285714D01*
X78712619Y-52285714D02*
X78807857Y-52333333D01*
X78807857Y-52333333D02*
X78950714Y-52333333D01*
X78950714Y-52333333D02*
X79045952Y-52285714D01*
X79045952Y-52285714D02*
X79093571Y-52238095D01*
X79093571Y-52238095D02*
X79141190Y-52142857D01*
X79141190Y-52142857D02*
X79141190Y-51761905D01*
X78712619Y-52714286D02*
X78665000Y-52761905D01*
X78665000Y-52761905D02*
X78617380Y-52857143D01*
X78617380Y-52857143D02*
X78617380Y-53095238D01*
X78617380Y-53095238D02*
X78665000Y-53190476D01*
X78665000Y-53190476D02*
X78712619Y-53238095D01*
X78712619Y-53238095D02*
X78807857Y-53285714D01*
X78807857Y-53285714D02*
X78903095Y-53285714D01*
X78903095Y-53285714D02*
X79045952Y-53238095D01*
X79045952Y-53238095D02*
X79617380Y-52666667D01*
X79617380Y-52666667D02*
X79617380Y-53285714D01*
X79617380Y-57833333D02*
X79141190Y-57500000D01*
X79617380Y-57261905D02*
X78617380Y-57261905D01*
X78617380Y-57261905D02*
X78617380Y-57642857D01*
X78617380Y-57642857D02*
X78665000Y-57738095D01*
X78665000Y-57738095D02*
X78712619Y-57785714D01*
X78712619Y-57785714D02*
X78807857Y-57833333D01*
X78807857Y-57833333D02*
X78950714Y-57833333D01*
X78950714Y-57833333D02*
X79045952Y-57785714D01*
X79045952Y-57785714D02*
X79093571Y-57738095D01*
X79093571Y-57738095D02*
X79141190Y-57642857D01*
X79141190Y-57642857D02*
X79141190Y-57261905D01*
X79617380Y-58785714D02*
X79617380Y-58214286D01*
X79617380Y-58500000D02*
X78617380Y-58500000D01*
X78617380Y-58500000D02*
X78760238Y-58404762D01*
X78760238Y-58404762D02*
X78855476Y-58309524D01*
X78855476Y-58309524D02*
X78903095Y-58214286D01*
X68617380Y-55738095D02*
X69426904Y-55738095D01*
X69426904Y-55738095D02*
X69522142Y-55785714D01*
X69522142Y-55785714D02*
X69569761Y-55833333D01*
X69569761Y-55833333D02*
X69617380Y-55928571D01*
X69617380Y-55928571D02*
X69617380Y-56119047D01*
X69617380Y-56119047D02*
X69569761Y-56214285D01*
X69569761Y-56214285D02*
X69522142Y-56261904D01*
X69522142Y-56261904D02*
X69426904Y-56309523D01*
X69426904Y-56309523D02*
X68617380Y-56309523D01*
X69617380Y-57309523D02*
X69617380Y-56738095D01*
X69617380Y-57023809D02*
X68617380Y-57023809D01*
X68617380Y-57023809D02*
X68760238Y-56928571D01*
X68760238Y-56928571D02*
X68855476Y-56833333D01*
X68855476Y-56833333D02*
X68903095Y-56738095D01*
X81367380Y-57511905D02*
X80367380Y-57511905D01*
X80367380Y-57511905D02*
X80367380Y-57750000D01*
X80367380Y-57750000D02*
X80415000Y-57892857D01*
X80415000Y-57892857D02*
X80510238Y-57988095D01*
X80510238Y-57988095D02*
X80605476Y-58035714D01*
X80605476Y-58035714D02*
X80795952Y-58083333D01*
X80795952Y-58083333D02*
X80938809Y-58083333D01*
X80938809Y-58083333D02*
X81129285Y-58035714D01*
X81129285Y-58035714D02*
X81224523Y-57988095D01*
X81224523Y-57988095D02*
X81319761Y-57892857D01*
X81319761Y-57892857D02*
X81367380Y-57750000D01*
X81367380Y-57750000D02*
X81367380Y-57511905D01*
X81367380Y-59035714D02*
X81367380Y-58464286D01*
X81367380Y-58750000D02*
X80367380Y-58750000D01*
X80367380Y-58750000D02*
X80510238Y-58654762D01*
X80510238Y-58654762D02*
X80605476Y-58559524D01*
X80605476Y-58559524D02*
X80653095Y-58464286D01*
X75272142Y-55583333D02*
X75319761Y-55535714D01*
X75319761Y-55535714D02*
X75367380Y-55392857D01*
X75367380Y-55392857D02*
X75367380Y-55297619D01*
X75367380Y-55297619D02*
X75319761Y-55154762D01*
X75319761Y-55154762D02*
X75224523Y-55059524D01*
X75224523Y-55059524D02*
X75129285Y-55011905D01*
X75129285Y-55011905D02*
X74938809Y-54964286D01*
X74938809Y-54964286D02*
X74795952Y-54964286D01*
X74795952Y-54964286D02*
X74605476Y-55011905D01*
X74605476Y-55011905D02*
X74510238Y-55059524D01*
X74510238Y-55059524D02*
X74415000Y-55154762D01*
X74415000Y-55154762D02*
X74367380Y-55297619D01*
X74367380Y-55297619D02*
X74367380Y-55392857D01*
X74367380Y-55392857D02*
X74415000Y-55535714D01*
X74415000Y-55535714D02*
X74462619Y-55583333D01*
X74700714Y-56440476D02*
X75367380Y-56440476D01*
X74319761Y-56202381D02*
X75034047Y-55964286D01*
X75034047Y-55964286D02*
X75034047Y-56583333D01*
X79772142Y-60083333D02*
X79819761Y-60035714D01*
X79819761Y-60035714D02*
X79867380Y-59892857D01*
X79867380Y-59892857D02*
X79867380Y-59797619D01*
X79867380Y-59797619D02*
X79819761Y-59654762D01*
X79819761Y-59654762D02*
X79724523Y-59559524D01*
X79724523Y-59559524D02*
X79629285Y-59511905D01*
X79629285Y-59511905D02*
X79438809Y-59464286D01*
X79438809Y-59464286D02*
X79295952Y-59464286D01*
X79295952Y-59464286D02*
X79105476Y-59511905D01*
X79105476Y-59511905D02*
X79010238Y-59559524D01*
X79010238Y-59559524D02*
X78915000Y-59654762D01*
X78915000Y-59654762D02*
X78867380Y-59797619D01*
X78867380Y-59797619D02*
X78867380Y-59892857D01*
X78867380Y-59892857D02*
X78915000Y-60035714D01*
X78915000Y-60035714D02*
X78962619Y-60083333D01*
X78867380Y-60416667D02*
X78867380Y-61035714D01*
X78867380Y-61035714D02*
X79248333Y-60702381D01*
X79248333Y-60702381D02*
X79248333Y-60845238D01*
X79248333Y-60845238D02*
X79295952Y-60940476D01*
X79295952Y-60940476D02*
X79343571Y-60988095D01*
X79343571Y-60988095D02*
X79438809Y-61035714D01*
X79438809Y-61035714D02*
X79676904Y-61035714D01*
X79676904Y-61035714D02*
X79772142Y-60988095D01*
X79772142Y-60988095D02*
X79819761Y-60940476D01*
X79819761Y-60940476D02*
X79867380Y-60845238D01*
X79867380Y-60845238D02*
X79867380Y-60559524D01*
X79867380Y-60559524D02*
X79819761Y-60464286D01*
X79819761Y-60464286D02*
X79772142Y-60416667D01*
X69772142Y-59583333D02*
X69819761Y-59535714D01*
X69819761Y-59535714D02*
X69867380Y-59392857D01*
X69867380Y-59392857D02*
X69867380Y-59297619D01*
X69867380Y-59297619D02*
X69819761Y-59154762D01*
X69819761Y-59154762D02*
X69724523Y-59059524D01*
X69724523Y-59059524D02*
X69629285Y-59011905D01*
X69629285Y-59011905D02*
X69438809Y-58964286D01*
X69438809Y-58964286D02*
X69295952Y-58964286D01*
X69295952Y-58964286D02*
X69105476Y-59011905D01*
X69105476Y-59011905D02*
X69010238Y-59059524D01*
X69010238Y-59059524D02*
X68915000Y-59154762D01*
X68915000Y-59154762D02*
X68867380Y-59297619D01*
X68867380Y-59297619D02*
X68867380Y-59392857D01*
X68867380Y-59392857D02*
X68915000Y-59535714D01*
X68915000Y-59535714D02*
X68962619Y-59583333D01*
X68962619Y-59964286D02*
X68915000Y-60011905D01*
X68915000Y-60011905D02*
X68867380Y-60107143D01*
X68867380Y-60107143D02*
X68867380Y-60345238D01*
X68867380Y-60345238D02*
X68915000Y-60440476D01*
X68915000Y-60440476D02*
X68962619Y-60488095D01*
X68962619Y-60488095D02*
X69057857Y-60535714D01*
X69057857Y-60535714D02*
X69153095Y-60535714D01*
X69153095Y-60535714D02*
X69295952Y-60488095D01*
X69295952Y-60488095D02*
X69867380Y-59916667D01*
X69867380Y-59916667D02*
X69867380Y-60535714D01*
X69772142Y-52583333D02*
X69819761Y-52535714D01*
X69819761Y-52535714D02*
X69867380Y-52392857D01*
X69867380Y-52392857D02*
X69867380Y-52297619D01*
X69867380Y-52297619D02*
X69819761Y-52154762D01*
X69819761Y-52154762D02*
X69724523Y-52059524D01*
X69724523Y-52059524D02*
X69629285Y-52011905D01*
X69629285Y-52011905D02*
X69438809Y-51964286D01*
X69438809Y-51964286D02*
X69295952Y-51964286D01*
X69295952Y-51964286D02*
X69105476Y-52011905D01*
X69105476Y-52011905D02*
X69010238Y-52059524D01*
X69010238Y-52059524D02*
X68915000Y-52154762D01*
X68915000Y-52154762D02*
X68867380Y-52297619D01*
X68867380Y-52297619D02*
X68867380Y-52392857D01*
X68867380Y-52392857D02*
X68915000Y-52535714D01*
X68915000Y-52535714D02*
X68962619Y-52583333D01*
X69867380Y-53535714D02*
X69867380Y-52964286D01*
X69867380Y-53250000D02*
X68867380Y-53250000D01*
X68867380Y-53250000D02*
X69010238Y-53154762D01*
X69010238Y-53154762D02*
X69105476Y-53059524D01*
X69105476Y-53059524D02*
X69153095Y-52964286D01*
D11*
X82899999Y-54995100D02*
X82899999Y-53395100D01*
D12*
X80567260Y-55822100D02*
X80372998Y-55822100D01*
X80372998Y-55822100D02*
X80372998Y-52568100D01*
X80372998Y-52568100D02*
X80567260Y-52568100D01*
D11*
X76762742Y-52477500D02*
X77237258Y-52477500D01*
X76762742Y-53522500D02*
X77237258Y-53522500D01*
X76762742Y-57477500D02*
X77237258Y-57477500D01*
X76762742Y-58522500D02*
X77237258Y-58522500D01*
X72000000Y-54940000D02*
X73800000Y-54940000D01*
X72000000Y-54940000D02*
X71200000Y-54940000D01*
X72000000Y-58060000D02*
X72800000Y-58060000D01*
X72000000Y-58060000D02*
X71200000Y-58060000D01*
X80265000Y-61485000D02*
X80265000Y-59200000D01*
X81735000Y-61485000D02*
X80265000Y-61485000D01*
X81735000Y-59200000D02*
X81735000Y-61485000D01*
X77140580Y-56260000D02*
X76859420Y-56260000D01*
X77140580Y-55240000D02*
X76859420Y-55240000D01*
X76859420Y-59740000D02*
X77140580Y-59740000D01*
X76859420Y-60760000D02*
X77140580Y-60760000D01*
X72140580Y-60260000D02*
X71859420Y-60260000D01*
X72140580Y-59240000D02*
X71859420Y-59240000D01*
X71859420Y-52490000D02*
X72140580Y-52490000D01*
X71859420Y-53510000D02*
X72140580Y-53510000D01*
%LPC*%
D13*
X81749999Y-55895101D03*
X81749999Y-52495097D03*
D14*
X76175000Y-53000000D03*
X77825000Y-53000000D03*
X76175000Y-58000000D03*
X77825000Y-58000000D03*
D15*
X70862500Y-56500000D03*
X73137500Y-57450000D03*
X73137500Y-55550000D03*
D16*
X66799999Y-60439999D03*
D17*
X66799999Y-57899999D03*
X66799999Y-55359999D03*
X66799999Y-52819999D03*
D18*
X81000000Y-60787500D03*
X81000000Y-59212500D03*
D19*
X77775000Y-55750000D03*
X76225000Y-55750000D03*
D20*
X76225000Y-60250000D03*
X77775000Y-60250000D03*
D19*
X72775000Y-59750000D03*
X71225000Y-59750000D03*
D20*
X71225000Y-53000000D03*
X72775000Y-53000000D03*
M02*
