G04 #@! TF.GenerationSoftware,KiCad,Pcbnew,(7.0.0-0)*
G04 #@! TF.CreationDate,2023-04-22T22:08:33+02:00*
G04 #@! TF.ProjectId,tiny-blackbox,74696e79-2d62-46c6-9163-6b626f782e6b,rev?*
G04 #@! TF.SameCoordinates,Original*
G04 #@! TF.FileFunction,Soldermask,Top*
G04 #@! TF.FilePolarity,Negative*
%FSLAX46Y46*%
G04 Gerber Fmt 4.6, Leading zero omitted, Abs format (unit mm)*
G04 Created by KiCad (PCBNEW (7.0.0-0)) date 2023-04-22 22:08:33*
%MOMM*%
%LPD*%
G01*
G04 APERTURE LIST*
G04 Aperture macros list*
%AMRoundRect*
0 Rectangle with rounded corners*
0 $1 Rounding radius*
0 $2 $3 $4 $5 $6 $7 $8 $9 X,Y pos of 4 corners*
0 Add a 4 corners polygon primitive as box body*
4,1,4,$2,$3,$4,$5,$6,$7,$8,$9,$2,$3,0*
0 Add four circle primitives for the rounded corners*
1,1,$1+$1,$2,$3*
1,1,$1+$1,$4,$5*
1,1,$1+$1,$6,$7*
1,1,$1+$1,$8,$9*
0 Add four rect primitives between the rounded corners*
20,1,$1+$1,$2,$3,$4,$5,0*
20,1,$1+$1,$4,$5,$6,$7,0*
20,1,$1+$1,$6,$7,$8,$9,0*
20,1,$1+$1,$8,$9,$2,$3,0*%
%AMFreePoly0*
4,1,14,0.230680,0.111820,0.364320,-0.021821,0.377500,-0.053642,0.377500,-0.080000,0.364320,-0.111820,0.332500,-0.125000,-0.332500,-0.125000,-0.364320,-0.111820,-0.377500,-0.080000,-0.377500,0.080000,-0.364320,0.111820,-0.332500,0.125000,0.198860,0.125000,0.230680,0.111820,0.230680,0.111820,$1*%
%AMFreePoly1*
4,1,14,0.364320,0.111820,0.377500,0.080000,0.377501,0.053640,0.364318,0.021819,0.230680,-0.111820,0.198860,-0.125000,-0.332500,-0.125000,-0.364320,-0.111820,-0.377500,-0.080000,-0.377500,0.080000,-0.364320,0.111820,-0.332500,0.125000,0.332500,0.125000,0.364320,0.111820,0.364320,0.111820,$1*%
%AMFreePoly2*
4,1,15,0.053642,0.377500,0.080000,0.377500,0.111820,0.364320,0.125000,0.332500,0.125000,-0.332500,0.111820,-0.364320,0.080000,-0.377500,-0.080000,-0.377500,-0.111820,-0.364320,-0.125000,-0.332500,-0.125000,0.198860,-0.111820,0.230680,0.021820,0.364320,0.053640,0.377501,0.053642,0.377500,0.053642,0.377500,$1*%
%AMFreePoly3*
4,1,14,-0.021820,0.364320,0.111820,0.230679,0.125000,0.198858,0.125000,-0.332500,0.111820,-0.364320,0.080000,-0.377500,-0.080000,-0.377500,-0.111820,-0.364320,-0.125000,-0.332500,-0.125000,0.332500,-0.111820,0.364320,-0.080000,0.377500,-0.053640,0.377500,-0.021820,0.364320,-0.021820,0.364320,$1*%
%AMFreePoly4*
4,1,14,0.364320,0.111820,0.377500,0.080000,0.377500,-0.080000,0.364320,-0.111820,0.332500,-0.125000,-0.198860,-0.125001,-0.230680,-0.111818,-0.364320,0.021820,-0.377500,0.053640,-0.377500,0.080000,-0.364320,0.111820,-0.332500,0.125000,0.332500,0.125000,0.364320,0.111820,0.364320,0.111820,$1*%
%AMFreePoly5*
4,1,15,-0.198858,0.125000,0.332500,0.125000,0.364320,0.111820,0.377500,0.080000,0.377500,-0.080000,0.364320,-0.111820,0.332500,-0.125000,-0.332500,-0.125000,-0.364320,-0.111820,-0.377500,-0.080000,-0.377500,-0.053640,-0.364320,-0.021819,-0.230680,0.111820,-0.198860,0.125001,-0.198858,0.125000,-0.198858,0.125000,$1*%
%AMFreePoly6*
4,1,14,0.111820,0.364320,0.125000,0.332500,0.125001,-0.198860,0.111818,-0.230680,-0.021820,-0.364320,-0.053640,-0.377500,-0.080000,-0.377500,-0.111820,-0.364320,-0.125000,-0.332500,-0.125000,0.332500,-0.111820,0.364320,-0.080000,0.377500,0.080000,0.377500,0.111820,0.364320,0.111820,0.364320,$1*%
%AMFreePoly7*
4,1,14,0.111820,0.364320,0.125000,0.332500,0.125000,-0.332500,0.111820,-0.364320,0.080000,-0.377500,0.053640,-0.377501,0.021819,-0.364318,-0.111820,-0.230680,-0.125000,-0.198860,-0.125000,0.332500,-0.111820,0.364320,-0.080000,0.377500,0.080000,0.377500,0.111820,0.364320,0.111820,0.364320,$1*%
G04 Aperture macros list end*
%ADD10RoundRect,0.150000X0.150000X-0.650000X0.150000X0.650000X-0.150000X0.650000X-0.150000X-0.650000X0*%
%ADD11FreePoly0,90.000000*%
%ADD12RoundRect,0.062500X0.062500X-0.375000X0.062500X0.375000X-0.062500X0.375000X-0.062500X-0.375000X0*%
%ADD13FreePoly1,90.000000*%
%ADD14FreePoly2,90.000000*%
%ADD15RoundRect,0.062500X0.375000X-0.062500X0.375000X0.062500X-0.375000X0.062500X-0.375000X-0.062500X0*%
%ADD16FreePoly3,90.000000*%
%ADD17FreePoly4,90.000000*%
%ADD18FreePoly5,90.000000*%
%ADD19FreePoly6,90.000000*%
%ADD20FreePoly7,90.000000*%
%ADD21C,1.000000*%
%ADD22R,2.800000X2.000000*%
%ADD23O,2.800000X2.000000*%
G04 APERTURE END LIST*
D10*
X78095000Y-59600000D03*
X79365000Y-59600000D03*
X80635000Y-59600000D03*
X81905000Y-59600000D03*
X81905000Y-52400000D03*
X80635000Y-52400000D03*
X79365000Y-52400000D03*
X78095000Y-52400000D03*
D11*
X72000000Y-57997500D03*
D12*
X72500000Y-57937500D03*
X73000000Y-57937500D03*
X73500000Y-57937500D03*
X74000000Y-57937500D03*
X74500000Y-57937500D03*
D13*
X75000000Y-57997500D03*
D14*
X75497500Y-57500000D03*
D15*
X75437500Y-57000000D03*
X75437500Y-56500000D03*
X75437500Y-56000000D03*
X75437500Y-55500000D03*
X75437500Y-55000000D03*
D16*
X75497500Y-54500000D03*
D17*
X75000000Y-54002500D03*
D12*
X74500000Y-54062500D03*
X74000000Y-54062500D03*
X73500000Y-54062500D03*
X73000000Y-54062500D03*
X72500000Y-54062500D03*
D18*
X72000000Y-54002500D03*
D19*
X71502500Y-54500000D03*
D15*
X71562500Y-55000000D03*
X71562500Y-55500000D03*
X71562500Y-56000000D03*
X71562500Y-56500000D03*
X71562500Y-57000000D03*
D20*
X71502500Y-57500000D03*
D21*
X72250000Y-60250000D03*
X72500000Y-52250000D03*
X70250000Y-52250000D03*
X75500000Y-52250000D03*
D22*
X66799999Y-60439999D03*
D23*
X66799999Y-57899999D03*
X66799999Y-55359999D03*
X66799999Y-52819999D03*
M02*
